<svg width="30" height="26" viewBox="0 0 30 26" fill="none" xmlns="http://www.w3.org/2000/svg">
<path d="M20.3591 8.25958L18.413 0.990512C18.3149 0.646075 18.0854 0.35404 17.774 0.177441C17.4627 0.000828505 17.0944 -0.0461974 16.7487 0.0465031C16.403 0.139217 16.1075 0.36422 15.9262 0.672972C15.7448 0.981723 15.6919 1.34947 15.779 1.69685L17.5364 8.25958H12.4636L14.2207 1.69685C14.3078 1.34947 14.2549 0.981723 14.0735 0.672972C13.8922 0.36422 13.5967 0.139217 13.251 0.0465031C12.9053 -0.0461974 12.537 0.000828505 12.2257 0.177441C11.9143 0.35404 11.6848 0.646075 11.5867 0.990512L9.64091 8.25958H0V10.8524L4.00705 26H25.993L29.9534 11.2054L30 8.25958H20.3591ZM23.9 23.2707H6.10623L2.85736 10.9889H27.1879L23.9 23.2707ZM9.28855 16.4155C9.5987 16.4155 9.9019 16.3236 10.1598 16.1511C10.4177 15.9786 10.6187 15.7335 10.7374 15.4468C10.856 15.1601 10.8871 14.8444 10.8266 14.5401C10.7661 14.2356 10.6167 13.956 10.3974 13.7365C10.1781 13.517 9.89868 13.3676 9.59448 13.307C9.29029 13.2464 8.97498 13.2775 8.68842 13.3963C8.40188 13.5151 8.15696 13.7163 7.98465 13.9743C7.81234 14.2324 7.72036 14.5359 7.72036 14.8462C7.72036 15.0522 7.76093 15.2564 7.83974 15.4468C7.91854 15.6371 8.03405 15.8102 8.17968 15.9559C8.32529 16.1017 8.49817 16.2173 8.68842 16.2961C8.87869 16.375 9.08261 16.4155 9.28855 16.4155ZM20.7115 16.4155C21.0215 16.4155 21.3248 16.3236 21.5827 16.1511C21.8405 15.9786 22.0415 15.7335 22.1603 15.4468C22.279 15.1601 22.31 14.8444 22.2495 14.5401C22.189 14.2356 22.0396 13.956 21.8204 13.7365C21.601 13.517 21.3215 13.3676 21.0175 13.307C20.7132 13.2464 20.3978 13.2775 20.1113 13.3963C19.8248 13.5151 19.5799 13.7163 19.4075 13.9743C19.2352 14.2324 19.1433 14.5359 19.1433 14.8462C19.1433 15.2624 19.3085 15.6616 19.6025 15.9559C19.8967 16.2501 20.2955 16.4155 20.7115 16.4155Z" fill="#00A0E3"/>
</svg>
