<svg width="25" height="25" viewBox="0 0 25 25" fill="none" xmlns="http://www.w3.org/2000/svg">
<path d="M23.8118 2.77483L22.2252 1.18818C21.463 0.427332 20.4301 0 19.3532 0C18.2762 0 17.2433 0.427332 16.4811 1.18818L0 17.6691V25H7.33085L23.8118 8.5189C24.5727 7.75673 25 6.7238 25 5.64687C25 4.56992 24.5727 3.537 23.8118 2.77483ZM6.20904 22.2919H2.70806V18.791L14.8943 6.60471L18.3956 10.1057L6.20904 22.2919ZM21.8971 6.60403L20.3105 8.19082L16.8092 4.68957L18.396 3.10278C18.6504 2.84987 18.9945 2.70791 19.3532 2.70791C19.7118 2.70791 20.0559 2.84987 20.3103 3.10278L21.8974 4.68957C22.1502 4.94389 22.2921 5.28793 22.2921 5.64653C22.2921 6.00513 22.1502 6.34916 21.8974 6.60349L21.8971 6.60403Z" fill="#00A0E3"/>
</svg>
