<svg width="21" height="22" viewBox="0 0 21 22" fill="none" xmlns="http://www.w3.org/2000/svg">
<path d="M20.2444 19.7929L14.3516 13.8999C15.603 12.2888 16.1932 10.2614 16.0022 8.23038C15.8112 6.19937 14.8533 4.31752 13.3235 2.96799C11.7937 1.61845 9.80707 0.902686 7.76809 0.966446C5.72912 1.0302 3.7911 1.86868 2.34862 3.31115C0.906152 4.75363 0.0676714 6.69165 0.00392141 8.73062C-0.0598386 10.7696 0.655921 12.7562 2.00546 14.286C3.35499 15.8158 5.23684 16.7737 7.26785 16.9647C9.29887 17.1557 11.3263 16.5655 12.9374 15.3141L18.8304 21.2069L20.2444 19.7929ZM8.03741 14.9999C6.85072 14.9999 5.69069 14.648 4.70399 13.9888C3.7173 13.3295 2.94826 12.3924 2.49414 11.296C2.04001 10.1997 1.92119 8.99329 2.1527 7.8294C2.38421 6.66551 2.95566 5.59642 3.79477 4.7573C4.63389 3.91819 5.70298 3.34674 6.86687 3.11523C8.03076 2.88372 9.23717 3.00254 10.3335 3.45667C11.4299 3.91079 12.367 4.67983 13.0263 5.66652C13.6855 6.65322 14.0374 7.81325 14.0374 8.99994C14.0356 10.5907 13.4029 12.1158 12.2781 13.2406C11.1533 14.3654 9.62817 14.9981 8.03741 14.9999Z" fill="#828486"/>
</svg>
