<svg width="18" height="19" viewBox="0 0 18 19" fill="none" xmlns="http://www.w3.org/2000/svg">
<path d="M3.3785 4.72166L4.05 4.04996C4.90743 3.19303 5.97263 2.57337 7.1414 2.2516C8.3101 1.92983 9.5424 1.91699 10.7176 2.21432C11.8928 2.51165 12.9707 3.10896 13.8458 3.94783C14.7209 4.7867 15.3633 5.83837 15.71 6.99996H17.77C17.4133 5.43169 16.6426 3.98773 15.5383 2.81847C14.434 1.6492 13.0364 0.797392 11.491 0.351742C9.9457 -0.0939079 8.3091 -0.117098 6.75175 0.284592C5.19439 0.686282 3.77321 1.49815 2.6362 2.63566L1.9642 3.30736L0 1.34306V6.99996H5.6569L3.3785 4.72166ZM12.3431 11L14.5731 13.23C14.3817 13.4837 14.1734 13.7243 13.9496 13.95C13.0922 14.8068 12.027 15.4264 10.8583 15.7481C9.6896 16.0698 8.4574 16.0826 7.2823 15.7853C6.10712 15.488 5.02928 14.8907 4.1542 14.0519C3.27913 13.2131 2.63678 12.1615 2.29 11H0.23C0.57886 12.664 1.39638 14.1935 2.58612 15.4081C3.77586 16.6226 5.28818 17.4716 6.94464 17.8547C8.6011 18.2379 10.3326 18.1392 11.9348 17.5704C13.5371 17.0017 14.9432 15.9865 15.9873 14.6447L18 16.6569V11H12.3431Z" fill="black"/>
</svg>
