<svg width="30" height="30" viewBox="0 0 30 30" fill="none" xmlns="http://www.w3.org/2000/svg">
<path fill-rule="evenodd" clip-rule="evenodd" d="M15 0C6.71625 0 0 6.71625 0 15C0 23.2837 6.71625 30 15 30C23.2837 30 30 23.2837 30 15C30 6.71625 23.2837 0 15 0ZM15 2.5C21.8925 2.5 27.5 8.1075 27.5 15C27.5 21.8925 21.8925 27.5 15 27.5C8.1075 27.5 2.5 21.8925 2.5 15C2.5 8.1075 8.1075 2.5 15 2.5ZM18.365 21.1112C18.5662 21.255 18.825 21.29 19.0562 21.2025C19.2875 21.115 19.4588 20.9175 19.5088 20.6775C20.0525 18.125 21.37 11.6637 21.8637 9.3425C21.9012 9.1675 21.84 8.98625 21.7025 8.86875C21.565 8.7525 21.3737 8.71875 21.2037 8.78125C18.5837 9.75125 10.5125 12.7787 7.21375 14C7.00375 14.0775 6.8675 14.2788 6.875 14.5C6.8825 14.7212 7.03125 14.9125 7.245 14.9762C8.725 15.4187 10.6675 16.035 10.6675 16.035C10.6675 16.035 11.5737 18.7763 12.0475 20.17C12.1062 20.3438 12.2437 20.4825 12.4237 20.5288C12.605 20.5763 12.7963 20.5275 12.9313 20.4C13.6913 19.6825 14.8662 18.5737 14.8662 18.5737C14.8662 18.5737 17.0987 20.21 18.365 21.1112ZM11.4838 15.6887L12.5338 19.15L12.7663 16.9575C12.7663 16.9575 16.82 13.3012 19.1313 11.2162C19.2 11.1562 19.2087 11.0538 19.1525 10.9812C19.0963 10.91 18.995 10.8925 18.9175 10.9412C16.2388 12.6512 11.4838 15.6887 11.4838 15.6887Z" fill="#00A0E3"/>
</svg>
