<svg width="24" height="24" viewBox="0 0 24 24" fill="none" xmlns="http://www.w3.org/2000/svg">
<path fill-rule="evenodd" clip-rule="evenodd" d="M5.78799 14.02C5.83096 14.0343 5.87514 14.0447 5.91999 14.051C6.20292 14.7176 6.48425 15.385 6.76399 16.053C7.26699 17.255 7.77399 18.493 7.88499 18.849C8.02399 19.287 8.16999 19.585 8.32999 19.789C8.41299 19.893 8.50799 19.985 8.61999 20.055C8.67834 20.0915 8.74077 20.121 8.80599 20.143C9.12599 20.263 9.41799 20.213 9.60099 20.152C9.70838 20.1153 9.81057 20.0649 9.90499 20.002L9.90999 20L12.736 18.238L16.001 20.74C16.049 20.777 16.101 20.808 16.157 20.833C16.549 21.003 16.929 21.063 17.287 21.015C17.643 20.965 17.926 20.816 18.137 20.647C18.3793 20.4517 18.5724 20.2024 18.701 19.919L18.71 19.897L18.713 19.889L18.715 19.885V19.883L18.716 19.882C18.7334 19.839 18.7468 19.7945 18.756 19.749L21.736 4.72399C21.7454 4.67589 21.7501 4.62699 21.75 4.57799C21.75 4.13799 21.584 3.71899 21.195 3.46599C20.861 3.24899 20.49 3.23899 20.255 3.25699C20.003 3.27699 19.769 3.33899 19.612 3.38899C19.5241 3.41684 19.4374 3.4482 19.352 3.48299L19.341 3.48799L2.62699 10.044L2.62499 10.045C2.56844 10.0658 2.51273 10.0888 2.45799 10.114C2.32546 10.1736 2.19832 10.2445 2.07799 10.326C1.85099 10.481 1.32799 10.907 1.41699 11.611C1.48699 12.171 1.87099 12.516 2.10599 12.682C2.23399 12.773 2.35599 12.838 2.44599 12.881C2.48599 12.901 2.57199 12.935 2.60899 12.951L2.61899 12.954L5.78799 14.02ZM19.926 4.86799H19.924C19.9154 4.87181 19.9067 4.87548 19.898 4.87899L3.16399 11.444C3.15538 11.4475 3.14672 11.4508 3.13799 11.454L3.12799 11.457C3.09742 11.469 3.0674 11.4823 3.03799 11.497C3.06583 11.5129 3.09454 11.5273 3.12399 11.54L6.26599 12.598C6.32214 12.6169 6.37585 12.6424 6.42599 12.674L16.803 6.59899L16.813 6.59399C16.8533 6.56949 16.8947 6.5468 16.937 6.52599C17.009 6.48899 17.124 6.43499 17.254 6.39499C17.344 6.36699 17.611 6.28799 17.899 6.38099C18.0518 6.42914 18.1879 6.51927 18.2919 6.64111C18.3958 6.76294 18.4635 6.91156 18.487 7.06999C18.5242 7.20874 18.5253 7.35472 18.49 7.49399C18.42 7.76899 18.228 7.98299 18.053 8.14699C17.903 8.28699 15.957 10.163 14.038 12.015L11.425 14.535L10.96 14.985L16.832 19.487C16.9112 19.5203 16.9973 19.534 17.083 19.527C17.1261 19.5211 17.1667 19.5031 17.2 19.475C17.2405 19.4408 17.2753 19.4002 17.303 19.355L17.305 19.354L20.195 4.78099C20.104 4.80288 20.0147 4.83163 19.928 4.86699L19.926 4.86799ZM11.465 17.262L10.293 16.364L10.009 18.169L11.465 17.262ZM9.21799 14.582L10.383 13.457L12.996 10.935L13.969 9.99699L7.44899 13.814L7.48399 13.896C7.8952 14.8674 8.30187 15.8408 8.70399 16.816L8.98699 15.016C9.0126 14.849 9.09403 14.6967 9.21799 14.582Z" fill="#00A0E3"/>
</svg>
