<svg width="68" height="56" viewBox="0 0 68 56" fill="none" xmlns="http://www.w3.org/2000/svg">
<g id="_&#195;&#144;&#194;&#161;&#195;&#144;&#194;&#187;&#195;&#144;&#194;&#190;&#195;&#144;&#194;&#185;_1" clip-path="url(#clip0_207_90)">
<path id="Vector" d="M67.0105 6.17047L61.2086 0.367066C61.0083 0.16975 60.7457 0.0478781 60.4701 0.0188611L60.4889 0L60.3076 0.00435256C59.9913 0.0116068 59.6924 0.137831 59.4661 0.359811L54.8074 5.0185C54.6522 5.17374 54.5433 5.3638 54.4882 5.57127L44.0029 16.0566C43.5198 16.5354 43.5169 17.3174 44.0029 17.8078C44.2423 18.0501 44.5586 18.1705 44.8763 18.1705C45.194 18.1705 45.5103 18.0501 45.7541 17.8078L55.7998 7.76206L59.8317 11.794L39.572 32.0537L35.5038 27.9855L39.8477 23.6416C40.3235 23.1614 40.3235 22.3808 39.8477 21.8992C39.6141 21.6656 39.3036 21.5365 38.9728 21.5365C38.642 21.5365 38.3315 21.6656 38.0979 21.8992L37.5132 22.4752L32.8545 27.1338C32.6398 27.3486 32.515 27.6271 32.4962 27.926L29.2202 36.6848L24.8516 41.0533L20.9634 33.2753C20.8154 32.9793 20.5615 32.7588 20.2481 32.6543C19.9347 32.5499 19.5996 32.5731 19.3036 32.7211C19.0105 32.8676 18.79 33.1186 18.6841 33.4305L13.86 47.8143C12.5803 45.255 11.4284 42.5999 10.436 39.9173C13.0417 34.2546 14.9757 29.0997 16.1857 24.5934C17.5858 19.4095 17.9528 15.4588 17.3072 12.5151C16.9256 10.7726 16.1814 9.41748 15.0947 8.48458C13.9543 7.50091 12.3714 6.9815 10.5201 6.9815H10.1197L10.1792 7.00326C8.63982 7.07871 7.27457 7.61552 6.21254 8.56873C5.15777 9.51179 4.37141 10.8596 3.87522 12.576C3.01341 15.5328 2.95538 19.4385 3.69676 24.518C4.37286 29.0838 5.72796 34.2401 7.72143 39.8433C5.45085 44.7095 2.91185 49.519 0.176996 54.1386C-0.171208 54.7247 0.0217553 55.4849 0.6079 55.8346C0.800863 55.9478 1.01414 56 1.22451 56C1.64526 56 2.0573 55.7867 2.28799 55.4037C4.75879 51.2949 7.03808 46.7305 8.98802 42.7552L9.30286 43.5546C10.4548 46.4781 11.646 49.5002 12.9706 51.8854C13.1331 52.1741 13.3972 52.3816 13.7149 52.4701C14.0326 52.56 14.3678 52.5194 14.6551 52.3569C14.922 52.2075 15.1222 51.9652 15.2209 51.675L20.0885 37.0722L23.408 43.6852C23.7142 44.296 24.4599 44.5426 25.0693 44.2379C25.1868 44.1785 25.2942 44.1016 25.3885 44.0073L31.0787 38.317L40.0653 34.9467C40.3555 34.8379 40.589 34.6275 40.7298 34.3533L61.654 13.4291L62.2474 14.0225L53.815 22.4548C53.3319 22.9365 53.3319 23.7214 53.815 24.206C54.0544 24.444 54.3707 24.5629 54.6855 24.5629C55.0004 24.5629 55.3166 24.444 55.556 24.206L64.8749 14.8872C65.3507 14.407 65.3507 13.6264 64.8749 13.1462L63.3268 11.5981L67.012 7.91295C67.4878 7.43272 67.4878 6.65216 67.012 6.17047H67.0105ZM64.412 7.05695L61.5089 9.9601L57.4407 5.89191L60.3453 2.9873L64.4135 7.05549L64.412 7.05695ZM34.2706 30.3025L37.3087 33.3406L32.4425 35.1701L34.272 30.3025H34.2706ZM7.85346 10.4113C8.57598 9.76714 9.43344 9.46681 10.552 9.46681H10.6246V9.45375C11.8694 9.46536 12.782 9.75698 13.4929 10.3721C14.1734 10.9597 14.6347 11.8361 14.9031 13.0533C15.4385 15.5082 15.054 19.3819 13.8223 23.9637C12.7689 27.8767 10.9031 32.3845 9.1984 36.3047C7.60681 31.3515 6.63474 27.4849 6.14435 24.148C5.47841 19.6271 5.51323 15.7664 6.24301 13.2782C6.61733 11.9942 7.15995 11.0294 7.85201 10.4113H7.85346Z" fill="#00ABE3"/>
<path id="Vector_2" d="M41.8426 21.0722H41.8484C42.5259 21.0693 43.0787 20.5165 43.0816 19.8389C43.0845 19.157 42.5317 18.5999 41.8484 18.597H41.844C41.1636 18.597 40.6094 19.1483 40.6065 19.8389C40.6065 20.1697 40.737 20.4802 40.9721 20.7124C41.2057 20.9445 41.5147 21.0707 41.8426 21.0707V21.0722Z" fill="#00ABE3"/>
</g>
<defs>
<clipPath id="clip0_207_90">
<rect width="67.3674" height="56" fill="white"/>
</clipPath>
</defs>
</svg>
