<svg width="56" height="56" viewBox="0 0 56 56" fill="none" xmlns="http://www.w3.org/2000/svg">
<g id="Frame" clip-path="url(#clip0_202_46)">
<g id="Group">
<path id="Vector" d="M52.3601 22.2346L42.7892 11.7168C40.8954 9.823 37.8103 9.82049 35.8987 11.7321C35.2929 12.3379 34.8806 13.0633 34.6667 13.8372C32.7628 12.3787 30.0162 12.5238 28.2623 14.2776C27.6785 14.8619 27.2535 15.5856 27.0278 16.3801C25.1238 14.9267 22.3772 15.0692 20.626 16.823C20.0328 17.4162 19.6256 18.1237 19.4042 18.8772L14.8936 14.3666C12.9997 12.4728 9.91465 12.4703 8.00305 14.3819C6.10673 16.2757 6.10673 19.3608 8.00305 21.2571L25.3325 38.5866L15.0539 40.2004C12.2768 40.5974 10.1819 43.0105 10.1819 45.8182C10.1819 47.9233 11.895 49.6364 14.0001 49.6364H38.0012C41.7405 49.6364 45.2558 48.1804 47.9005 45.5357L51.9044 41.5317C54.5466 38.892 56 35.3793 56 31.6451C56 28.1578 54.707 24.8157 52.3601 22.2346ZM50.1047 39.732L46.1008 43.736C43.9372 45.8996 41.0608 47.0909 38.0011 47.0909H14C13.2974 47.0909 12.7272 46.5206 12.7272 45.8181C12.7272 44.2704 13.8828 42.9392 15.433 42.7177L28.1985 40.7119C28.672 40.638 29.0614 40.3046 29.2116 39.849C29.3592 39.3959 29.2397 38.8944 28.9011 38.5559L9.80261 19.4575C8.89902 18.5539 8.89902 17.0826 9.81538 16.1637C10.2505 15.7297 10.8401 15.4861 11.4547 15.4866C12.0478 15.4866 12.6408 15.7131 13.094 16.1662L25.829 28.9011C26.3253 29.3975 27.1323 29.3975 27.6286 28.9011C27.8755 28.6517 28.0003 28.3259 28.0003 28.0001C28.0003 27.6742 27.8756 27.3485 27.6261 27.099L22.4258 21.8986C21.5222 20.995 21.5222 19.5262 22.441 18.6073C23.3421 17.7062 24.816 17.7062 25.717 18.6073L30.9199 23.8102C31.4163 24.3066 32.2232 24.3066 32.7196 23.8102C32.9576 23.5707 33.0912 23.2468 33.0913 22.9091C33.0913 22.5833 32.9666 22.2575 32.7171 22.008L30.0621 19.3531C29.1585 18.4495 29.1585 16.9807 30.0774 16.0618C30.9785 15.1607 32.4523 15.1607 33.3534 16.0618L36.021 18.7294C36.0261 18.7319 36.0235 18.7319 36.0235 18.7319L36.026 18.7344L36.0285 18.7369L36.031 18.7394H36.0335C36.036 18.7394 36.036 18.7419 36.036 18.7419C36.5349 19.2154 37.3241 19.2052 37.8102 18.7165C38.3066 18.2201 38.3066 17.4132 37.8102 16.9168L37.7008 16.8074C37.263 16.3696 37.0211 15.7866 37.0211 15.1681C37.0211 14.5496 37.2604 13.9692 37.7135 13.5161C38.6198 12.615 40.0859 12.6175 40.9489 13.4728L50.479 23.9474C52.3957 26.0578 53.4546 28.7916 53.4546 31.6451C53.4546 34.6997 52.2658 37.5709 50.1047 39.732Z" fill="#00ABE3"/>
<path id="Vector_2" d="M21.8807 13.1168C20.0277 9.01605 15.9346 6.3636 11.4546 6.3636C5.13928 6.3636 0 11.5029 0 17.8182C0 22.2982 2.65233 26.3913 6.75306 28.2469C6.92356 28.3233 7.10182 28.359 7.27746 28.359C7.76106 28.359 8.22437 28.0789 8.43819 27.6106C8.72586 26.9691 8.44069 26.2157 7.80186 25.9255C4.60986 24.4822 2.54554 21.3003 2.54554 17.8182C2.54554 12.9055 6.54186 8.90902 11.4547 8.90902C14.9369 8.90902 18.1187 10.9733 19.562 14.1653C19.8497 14.8068 20.6057 15.0945 21.2445 14.8017C21.8858 14.5116 22.1709 13.7582 21.8807 13.1168Z" fill="#00ABE3"/>
</g>
</g>
<defs>
<clipPath id="clip0_202_46">
<rect width="56" height="56" fill="white"/>
</clipPath>
</defs>
</svg>
