<svg width="65" height="56" viewBox="0 0 65 56" fill="none" xmlns="http://www.w3.org/2000/svg">
<g id="_&#195;&#144;&#194;&#161;&#195;&#144;&#194;&#187;&#195;&#144;&#194;&#190;&#195;&#144;&#194;&#185;_1" clip-path="url(#clip0_203_61)">
<path id="Vector" d="M30.9522 45.9225C30.5768 45.9225 30.2026 45.9038 29.8347 45.8639C26.643 45.5234 23.7395 43.6501 22.087 42.0112C19.4154 39.3621 17.0682 35.1428 15.806 30.7227C14.4777 26.3088 14.2046 21.5669 15.0739 18.0372C15.6152 15.8359 17.1243 12.8501 19.736 11.0778C21.1728 10.1012 22.9924 9.46138 24.6038 9.36659C26.1778 9.2743 27.3989 9.64098 28.2295 10.4592C29.6164 11.8249 29.5241 13.9726 29.4418 15.8683L29.4393 15.917C29.3931 19.2982 28.8045 21.1727 25.7326 22.0308C25.6764 22.0458 25.6203 22.0583 25.563 22.0657C25.2449 22.4324 24.7099 24.0975 25.1164 26.4173C25.2162 26.9972 25.3597 27.6046 25.543 28.2282C25.7263 28.8494 25.9359 29.443 26.1654 29.9918C27.1295 32.3079 28.5737 33.5027 29.0564 33.6424C29.1163 33.62 29.1774 33.6025 29.2385 33.5888C32.3191 32.939 33.7646 34.2111 35.6567 37.1259L35.7876 37.3155C36.9351 38.9718 38.1199 40.6829 37.6185 42.4926C37.3105 43.6014 36.4462 44.462 34.9732 45.1268C33.827 45.6431 32.3827 45.925 30.9534 45.925L30.9522 45.9225ZM25.0865 11.8461C24.9793 11.8461 24.867 11.8498 24.7485 11.856C23.6023 11.9234 22.1855 12.4285 21.1353 13.1407C19.1061 14.5188 17.905 16.9596 17.4935 18.6322C16.7252 21.7502 16.9871 26.0032 18.1944 30.0105L18.1994 30.028C19.3493 34.059 21.4584 37.8755 23.8405 40.2377C25.1314 41.5173 27.5448 43.1088 30.0978 43.3807C31.4062 43.5216 32.9165 43.3121 33.9455 42.8481C34.6689 42.5213 35.1191 42.1571 35.2127 41.8216C35.4022 41.1394 34.4781 39.8049 33.7347 38.7323L33.5913 38.5253C33.5838 38.5153 33.5776 38.5053 33.5713 38.4953C31.8464 35.835 31.2378 35.724 29.8783 35.9996C29.4892 36.1543 28.923 36.2391 28.1958 35.9784C26.6206 35.4135 24.8782 33.393 23.8605 30.9484C23.5973 30.3186 23.3579 29.6388 23.1483 28.9292C22.9388 28.2133 22.7729 27.5123 22.6569 26.8426C22.2054 24.2708 22.6095 21.7003 23.6634 20.4494C24.0838 19.9505 24.6176 19.6499 25.1838 19.5913C26.4846 19.2171 26.905 18.8704 26.9436 15.8646C26.9436 15.8521 26.9436 15.8396 26.9436 15.8272L26.9461 15.7586C27.006 14.3829 27.0733 12.8226 26.4759 12.2352C26.2115 11.9758 25.745 11.8448 25.084 11.8448L25.0865 11.8461Z" fill="#00ABE3"/>
<path id="Vector_2" d="M55.5485 11.8423H42.9192C42.2307 11.8423 41.672 11.2836 41.672 10.5951C41.672 9.90664 42.2307 9.34789 42.9192 9.34789H55.5485C56.237 9.34789 56.7957 9.90664 56.7957 10.5951C56.7957 11.2836 56.237 11.8423 55.5485 11.8423Z" fill="#00ABE3"/>
<path id="Vector_3" d="M55.5485 16.7813H42.9192C42.2307 16.7813 41.672 16.2225 41.672 15.5341C41.672 14.8456 42.2307 14.2869 42.9192 14.2869H55.5485C56.237 14.2869 56.7957 14.8456 56.7957 15.5341C56.7957 16.2225 56.237 16.7813 55.5485 16.7813Z" fill="#00ABE3"/>
<path id="Vector_4" d="M39.4868 29.7074C39.215 29.7074 38.9992 29.6326 38.877 29.5765C38.3282 29.3258 37.9864 28.7633 37.9864 28.111V27.8902C37.9864 27.8404 37.9889 27.7917 37.9952 27.7418L38.4916 23.5873C34.9507 21.0443 32.9365 17.37 32.9365 13.4001C32.9365 6.03029 40.0119 0.0361691 48.7088 0.0361691C52.2072 0.0361691 55.5198 0.9853 58.2899 2.78004C58.8673 3.15421 59.0332 3.92624 58.659 4.50494C58.2849 5.0824 57.5129 5.24828 56.9341 4.87412C54.5694 3.34129 51.7245 2.53185 48.7088 2.53185C41.3876 2.53185 35.4309 7.40846 35.4309 13.4026C35.4309 16.7476 37.278 19.8594 40.4996 21.9398C40.9311 22.2192 41.1444 22.7318 41.0471 23.2282L40.7203 25.962L43.3594 23.9166C43.6713 23.6759 44.0778 23.5948 44.4582 23.7008C45.8227 24.08 47.252 24.2733 48.7088 24.2733C56.0299 24.2733 61.9866 19.3967 61.9866 13.4026C61.9866 11.2337 61.2046 9.1396 59.7254 7.3461C59.2876 6.81479 59.3625 6.02904 59.8938 5.59002C60.4251 5.15225 61.2108 5.22708 61.6499 5.7584C63.502 8.00463 64.4811 10.6475 64.4811 13.4026C64.4811 20.7724 57.4056 26.7677 48.7088 26.7677C47.2433 26.7677 45.7978 26.5981 44.4046 26.2639L41.0683 28.8494C40.9398 28.9641 40.8713 29.0265 40.8151 29.0763C40.7578 29.1287 40.7116 29.1711 40.6368 29.2372C40.2127 29.6052 39.8099 29.7099 39.4868 29.7099V29.7074Z" fill="#00ABE3"/>
<path id="Vector_5" d="M28 56C20.5204 56 13.4886 53.0877 8.20045 47.7983C2.91225 42.5101 0 35.4783 0 28C0 22.1381 1.791 16.5256 5.17844 11.7712C5.5788 11.21 6.35706 11.079 6.91831 11.4794C7.47955 11.8785 7.61051 12.658 7.21016 13.2192C4.12454 17.5496 2.49443 22.6607 2.49443 28.0012C2.49443 42.0649 13.9364 53.5068 28 53.5068C42.0636 53.5068 53.5056 42.0649 53.5056 28.0012C53.5056 26.89 53.4332 25.7687 53.2886 24.6687C53.2 23.9852 53.6802 23.3591 54.3636 23.2706C55.0471 23.1808 55.6732 23.6622 55.7618 24.3457C55.9189 25.553 56 26.784 56 28.0012C56 43.4405 43.4393 56.0012 28 56.0012V56ZM8.9363 10.4779C8.62076 10.4779 8.30396 10.3581 8.062 10.1199C7.5706 9.63724 7.56436 8.8465 8.04828 8.35635C13.3502 2.96713 20.4356 0 28 0C32.2804 0 36.3888 0.940401 40.2115 2.79626C40.8314 3.09684 41.0895 3.84267 40.789 4.46254C40.4884 5.08241 39.7425 5.34058 39.1227 5.04C35.6429 3.35127 31.9013 2.49443 28.0012 2.49443C21.1104 2.49443 14.656 5.19715 9.82681 10.1062C9.58236 10.3544 9.26058 10.4791 8.93755 10.4791L8.9363 10.4779Z" fill="#00ABE3"/>
</g>
<defs>
<clipPath id="clip0_203_61">
<rect width="64.4811" height="56" fill="white"/>
</clipPath>
</defs>
</svg>
