<svg width="59" height="56" viewBox="0 0 59 56" fill="none" xmlns="http://www.w3.org/2000/svg">
<g id="_&#195;&#144;&#194;&#161;&#195;&#144;&#194;&#187;&#195;&#144;&#194;&#190;&#195;&#144;&#194;&#185;_1" clip-path="url(#clip0_207_81)">
<path id="Vector" d="M58.0541 11.5005L29.8689 0.090042C29.5725 -0.0296478 29.2465 -0.0296478 28.9501 0.090042L18.0663 4.49691C18.0287 4.51058 17.9911 4.5254 17.9557 4.54136L11.8983 6.99443C11.7752 7.02293 11.6578 7.07081 11.5472 7.13692L0.760315 11.5027L0.745496 11.5096C0.6999 11.529 0.656584 11.5506 0.615547 11.5746C0.603009 11.5814 0.59161 11.5882 0.58135 11.5951C0.542594 11.619 0.503837 11.6452 0.462801 11.6772L0.449122 11.6874C0.410365 11.7193 0.371608 11.7558 0.331712 11.7991L0.310054 11.8231C0.274717 11.8618 0.242799 11.904 0.217721 11.9405L0.208602 11.953C0.178965 11.9975 0.152747 12.0442 0.129949 12.0898C0.124249 12.1012 0.11855 12.1126 0.11399 12.1251L0.319173 12.2243L0.107151 12.1388C0.101451 12.1514 0.0946119 12.1639 0.0889124 12.1776C0.0797932 12.1992 0.0729538 12.222 0.0649745 12.2437L0.0615548 12.2551C0.058135 12.2642 0.0547153 12.2745 0.0524355 12.2824C0.0364769 12.3337 0.0250779 12.3873 0.0159586 12.4397L0.011399 12.4694C0.00455961 12.5173 0.0011399 12.5651 0 12.6142V12.6221V43.3642C0 43.8657 0.299794 44.3103 0.764875 44.4984L28.9501 55.9099C29.0972 55.9692 29.251 56 29.4095 56C29.5679 56 29.7218 55.9704 29.8689 55.9099L58.0541 44.4984C58.5181 44.3103 58.819 43.8646 58.819 43.3642V12.6358C58.819 12.1343 58.5192 11.6897 58.0541 11.5016V11.5005ZM28.1852 24.8704V52.9587L2.44737 42.54V14.4517L28.1852 24.8715V24.8704ZM41.6292 27.5423L41.6406 19.6462V19.62C41.6406 19.6075 41.6406 19.5961 41.6395 19.5835V19.5698C41.6384 19.5527 41.6372 19.5345 41.6361 19.5185V19.5026C41.6338 19.49 41.6315 19.4775 41.6292 19.465L41.6258 19.4445C41.6236 19.4296 41.6213 19.4148 41.6179 19.3989L41.6144 19.3795C41.6122 19.3692 41.6099 19.3578 41.6065 19.3476L41.603 19.335C41.603 19.335 41.6053 19.3441 41.6053 19.3487L41.6019 19.3316V19.3248C41.5973 19.3111 41.5939 19.2985 41.5894 19.2826C41.5814 19.2552 41.5723 19.229 41.562 19.2028C41.5586 19.1937 41.5563 19.1857 41.5495 19.1697L41.546 19.1629C41.5358 19.1378 41.5244 19.1127 41.5107 19.0865C41.5061 19.0763 41.5016 19.066 41.497 19.058C41.4879 19.0398 41.4776 19.0238 41.4628 18.9999L41.4571 18.9896C41.4491 18.9771 41.4423 18.9634 41.4377 18.9589L41.4309 18.9486C41.4241 18.9383 41.4172 18.9292 41.4035 18.9121L41.3967 18.9019C41.3853 18.8859 41.3739 18.8699 41.3625 18.8563C41.3545 18.8471 41.3466 18.838 41.3386 18.8289L41.3283 18.8175C41.3135 18.8004 41.2987 18.7833 41.2827 18.7685C41.2736 18.7594 41.2633 18.7491 41.2531 18.74L41.2394 18.7274C41.2246 18.7138 41.2098 18.7001 41.1949 18.6876C41.1847 18.6784 41.1733 18.6705 41.1539 18.6568L41.1448 18.6499C41.13 18.6385 41.1152 18.6271 41.0992 18.6169C41.0889 18.61 41.0787 18.6032 41.0593 18.5929L41.049 18.5861C41.0342 18.577 41.0194 18.5679 40.9943 18.5542C40.9852 18.5496 40.9772 18.5451 40.9613 18.5382C40.9442 18.5291 40.9259 18.5211 40.9157 18.5166L40.902 18.5097C40.902 18.5097 40.8917 18.5052 40.8883 18.504L15.4525 8.19589L18.4698 6.97391L45.408 17.9227L45.4217 25.9909L41.6292 27.5435V27.5423ZM30.6326 24.8727L39.1899 21.4416L39.1785 29.365C39.1785 29.7742 39.3802 30.1538 39.7199 30.383C40.0596 30.6109 40.4882 30.6543 40.8667 30.5004L47.1099 27.9447C47.5727 27.7555 47.8714 27.3098 47.8702 26.8094L47.8554 17.9204L56.3716 14.454V42.5389L30.6337 52.9587V24.8727H30.6326ZM21.7265 5.65505L29.4095 2.54425L54.3414 12.6381L46.63 15.7774L21.7265 5.65505ZM37.1437 19.6268L29.4118 22.7274L4.48552 12.6358L12.1924 9.5159L37.1437 19.628V19.6268Z" fill="#00ABE3"/>
</g>
<defs>
<clipPath id="clip0_207_81">
<rect width="58.819" height="56" fill="white"/>
</clipPath>
</defs>
</svg>
