<svg width="56" height="56" viewBox="0 0 56 56" fill="none" xmlns="http://www.w3.org/2000/svg">
<g id="Frame">
<g id="Group">
<path id="Vector" fill-rule="evenodd" clip-rule="evenodd" d="M36.1457 42.7887L39.445 46.088C39.6638 46.3067 39.9605 46.4296 40.2698 46.4296C40.5792 46.4296 40.8759 46.3067 41.0947 46.088L47.6933 39.4893C47.9058 39.2693 48.0234 38.9746 48.0208 38.6687C48.0181 38.3628 47.8954 38.0702 47.6791 37.8539C47.4628 37.6376 47.1702 37.5149 46.8643 37.5122C46.5584 37.5096 46.2637 37.6271 46.0437 37.8397L40.2698 43.6135L37.7953 41.139C37.5753 40.9265 37.2806 40.8089 36.9747 40.8115C36.6688 40.8142 36.3762 40.9369 36.1599 41.1532C35.9436 41.3695 35.8209 41.6621 35.8182 41.968C35.8156 42.2739 35.9331 42.5686 36.1457 42.7887ZM11.6667 24.5H35C35.3094 24.5 35.6062 24.3771 35.825 24.1583C36.0438 23.9395 36.1667 23.6428 36.1667 23.3333C36.1667 23.0239 36.0438 22.7272 35.825 22.5084C35.6062 22.2896 35.3094 22.1667 35 22.1667H11.6667C11.3572 22.1667 11.0605 22.2896 10.8417 22.5084C10.6229 22.7272 10.5 23.0239 10.5 23.3333C10.5 23.6428 10.6229 23.9395 10.8417 24.1583C11.0605 24.3771 11.3572 24.5 11.6667 24.5ZM11.6667 31.5H28C28.3094 31.5 28.6062 31.3771 28.825 31.1583C29.0438 30.9395 29.1667 30.6428 29.1667 30.3333C29.1667 30.0239 29.0438 29.7272 28.825 29.5084C28.6062 29.2896 28.3094 29.1667 28 29.1667H11.6667C11.3572 29.1667 11.0605 29.2896 10.8417 29.5084C10.6229 29.7272 10.5 30.0239 10.5 30.3333C10.5 30.6428 10.6229 30.9395 10.8417 31.1583C11.0605 31.3771 11.3572 31.5 11.6667 31.5ZM11.6667 38.5H25.6667C25.9761 38.5 26.2728 38.3771 26.4916 38.1583C26.7104 37.9395 26.8333 37.6428 26.8333 37.3333C26.8333 37.0239 26.7104 36.7272 26.4916 36.5084C26.2728 36.2896 25.9761 36.1667 25.6667 36.1667H11.6667C11.3572 36.1667 11.0605 36.2896 10.8417 36.5084C10.6229 36.7272 10.5 37.0239 10.5 37.3333C10.5 37.6428 10.6229 37.9395 10.8417 38.1583C11.0605 38.3771 11.3572 38.5 11.6667 38.5ZM11.6667 45.5H25.6667C25.9761 45.5 26.2728 45.3771 26.4916 45.1583C26.7104 44.9395 26.8333 44.6428 26.8333 44.3333C26.8333 44.0239 26.7104 43.7272 26.4916 43.5084C26.2728 43.2896 25.9761 43.1667 25.6667 43.1667H11.6667C11.3572 43.1667 11.0605 43.2896 10.8417 43.5084C10.6229 43.7272 10.5 44.0239 10.5 44.3333C10.5 44.6428 10.6229 44.9395 10.8417 45.1583C11.0605 45.3771 11.3572 45.5 11.6667 45.5Z" fill="#00ABE3"/>
<path id="Vector_2" fill-rule="evenodd" clip-rule="evenodd" d="M42 54.8333H7.00001C5.4529 54.8331 3.96915 54.2188 2.87467 53.1253C1.78121 52.0309 1.1669 50.5471 1.16667 49V15.9332C1.16667 14.3862 1.78151 12.9022 2.87467 11.8078L11.8078 2.87467C12.9023 1.7812 14.3861 1.16689 15.9332 1.16667H39.6667C41.2137 1.16667 42.6977 1.7815 43.792 2.87467C44.8855 3.96914 45.4998 5.4529 45.5 7V29.6508C50.8842 31.1757 54.8333 36.1305 54.8333 42C54.8333 49.0828 49.0828 54.8333 42 54.8333ZM43.1667 29.2192V7C43.1667 6.07133 42.798 5.18117 42.1412 4.5255C41.8164 4.20026 41.4307 3.94228 41.0061 3.76631C40.5814 3.59034 40.1263 3.49984 39.6667 3.5H15.9332C15.6753 3.50007 15.4183 3.52863 15.1667 3.58517V9.33333C15.1664 10.8804 14.5521 12.3642 13.4587 13.4587C12.3642 14.5521 10.8804 15.1664 9.33334 15.1667H3.58517C3.52863 15.4183 3.50007 15.6753 3.50001 15.9332V49C3.50001 49.9287 3.86867 50.8188 4.52551 51.4745C4.85028 51.7997 5.23602 52.0577 5.66062 52.2337C6.08523 52.4097 6.54038 52.5002 7.00001 52.5H34.6232C32.9371 51.3168 31.561 49.7448 30.6112 47.9171C29.6614 46.0894 29.1659 44.0598 29.1667 42C29.1667 34.9172 34.9172 29.1667 42 29.1667C42.3932 29.1667 42.7817 29.1842 43.1667 29.2192ZM42 31.5C47.7948 31.5 52.5 36.2052 52.5 42C52.5 47.7948 47.7948 52.5 42 52.5C36.2052 52.5 31.5 47.7948 31.5 42C31.5 36.2052 36.2052 31.5 42 31.5ZM12.8333 5.14967L5.14967 12.8333H9.33334C10.262 12.8333 11.1522 12.4647 11.8078 11.8078C12.1331 11.4831 12.3911 11.0973 12.567 10.6727C12.743 10.2481 12.8335 9.79296 12.8333 9.33333V5.14967Z" fill="#00ABE3"/>
</g>
</g>
</svg>
