<svg width="56" height="56" viewBox="0 0 56 56" fill="none" xmlns="http://www.w3.org/2000/svg">
<g id="Frame">
<g id="Group">
<path id="Vector" d="M12.8334 9.33333C13.4777 9.33333 14 8.811 14 8.16667C14 7.52233 13.4777 7 12.8334 7C12.189 7 11.6667 7.52233 11.6667 8.16667C11.6667 8.811 12.189 9.33333 12.8334 9.33333Z" fill="#00ABE3"/>
<path id="Vector_2" d="M17.5 9.33333C18.1443 9.33333 18.6666 8.811 18.6666 8.16667C18.6666 7.52233 18.1443 7 17.5 7C16.8556 7 16.3333 7.52233 16.3333 8.16667C16.3333 8.811 16.8556 9.33333 17.5 9.33333Z" fill="#00ABE3"/>
<path id="Vector_3" d="M46.375 18.6667H39.6667V5.67934C39.6667 3.83368 38.1663 2.33334 36.3207 2.33334H10.346C8.50033 2.33334 7 3.83368 7 5.67934V50.323C7 52.1663 8.50033 53.6667 10.346 53.6667H36.323C38.1663 53.6667 39.6667 52.1663 39.6667 50.3207V42H46.375C47.8217 42 49 40.8217 49 39.375V21.2917C49 19.845 47.8217 18.6667 46.375 18.6667ZM37.3333 5.67934V9.33334H28.238C27.3941 9.33357 26.5715 9.06822 25.8868 8.57489C25.202 8.08156 24.6899 7.38527 24.423 6.58468L23.7837 4.66668H36.3207C36.8807 4.66668 37.3333 5.11934 37.3333 5.67934ZM37.3333 50.3207C37.3333 50.8807 36.8807 51.3333 36.3207 51.3333H10.346C10.213 51.3333 10.0813 51.3072 9.95847 51.2563C9.83561 51.2054 9.72397 51.1308 9.62994 51.0367C9.5359 50.9427 9.46131 50.8311 9.41042 50.7082C9.35953 50.5853 9.33333 50.4537 9.33333 50.3207V5.67934C9.33333 5.11934 9.786 4.66668 10.346 4.66668H21.3267L22.211 7.32201C22.6314 8.58781 23.44 9.68892 24.522 10.4689C25.604 11.2488 26.9042 11.6679 28.238 11.6667H37.3333V18.6667H16.625C15.1783 18.6667 14 19.845 14 21.2917V39.3727C14 40.8217 15.1783 42 16.625 42H37.3333V50.3207ZM46.6667 39.375C46.6667 39.4524 46.6359 39.5266 46.5812 39.5813C46.5265 39.636 46.4524 39.6667 46.375 39.6667H16.625C16.5476 39.6667 16.4735 39.636 16.4188 39.5813C16.3641 39.5266 16.3333 39.4524 16.3333 39.375V21.2917C16.3333 21.1307 16.464 21 16.625 21H46.3727C46.536 21 46.6667 21.1307 46.6667 21.2917V39.375Z" fill="#00ABE3"/>
<path id="Vector_4" d="M43.1667 23.3333H38.5C38.1906 23.3333 37.8939 23.4563 37.6751 23.6751C37.4563 23.8938 37.3334 24.1906 37.3334 24.5V29.1667C37.3334 29.4761 37.4563 29.7728 37.6751 29.9916C37.8939 30.2104 38.1906 30.3333 38.5 30.3333H43.1667C43.4761 30.3333 43.7729 30.2104 43.9916 29.9916C44.2104 29.7728 44.3334 29.4761 44.3334 29.1667V24.5C44.3334 24.1906 44.2104 23.8938 43.9916 23.6751C43.7729 23.4563 43.4761 23.3333 43.1667 23.3333ZM42 28H39.6667V25.6667H42V28ZM43.1667 35H40.8334C40.5239 35 40.2272 35.1229 40.0084 35.3417C39.7896 35.5605 39.6667 35.8573 39.6667 36.1667C39.6667 36.4761 39.7896 36.7728 40.0084 36.9916C40.2272 37.2104 40.5239 37.3333 40.8334 37.3333H43.1667C43.4761 37.3333 43.7729 37.2104 43.9916 36.9916C44.2104 36.7728 44.3334 36.4761 44.3334 36.1667C44.3334 35.8573 44.2104 35.5605 43.9916 35.3417C43.7729 35.1229 43.4761 35 43.1667 35ZM36.1667 35H33.8334C33.5239 35 33.2272 35.1229 33.0084 35.3417C32.7896 35.5605 32.6667 35.8573 32.6667 36.1667C32.6667 36.4761 32.7896 36.7728 33.0084 36.9916C33.2272 37.2104 33.5239 37.3333 33.8334 37.3333H36.1667C36.4761 37.3333 36.7729 37.2104 36.9916 36.9916C37.2104 36.7728 37.3334 36.4761 37.3334 36.1667C37.3334 35.8573 37.2104 35.5605 36.9916 35.3417C36.7729 35.1229 36.4761 35 36.1667 35ZM29.1667 35H26.8334C26.5239 35 26.2272 35.1229 26.0084 35.3417C25.7896 35.5605 25.6667 35.8573 25.6667 36.1667C25.6667 36.4761 25.7896 36.7728 26.0084 36.9916C26.2272 37.2104 26.5239 37.3333 26.8334 37.3333H29.1667C29.4761 37.3333 29.7729 37.2104 29.9916 36.9916C30.2104 36.7728 30.3334 36.4761 30.3334 36.1667C30.3334 35.8573 30.2104 35.5605 29.9916 35.3417C29.7729 35.1229 29.4761 35 29.1667 35ZM22.1667 35H19.8334C19.5239 35 19.2272 35.1229 19.0084 35.3417C18.7896 35.5605 18.6667 35.8573 18.6667 36.1667C18.6667 36.4761 18.7896 36.7728 19.0084 36.9916C19.2272 37.2104 19.5239 37.3333 19.8334 37.3333H22.1667C22.4761 37.3333 22.7729 37.2104 22.9916 36.9916C23.2104 36.7728 23.3334 36.4761 23.3334 36.1667C23.3334 35.8573 23.2104 35.5605 22.9916 35.3417C22.7729 35.1229 22.4761 35 22.1667 35Z" fill="#00ABE3"/>
</g>
</g>
</svg>
