<?xml version="1.0" standalone="no"?>
<!DOCTYPE svg PUBLIC "-//W3C//DTD SVG 1.1//EN" "http://www.w3.org/Graphics/SVG/1.1/DTD/svg11.dtd">
<svg xmlns="http://www.w3.org/2000/svg">
<metadata>Copyright (C) 2018 by original authors @ fontello.com</metadata>
<defs>
<font id="fontello" horiz-adv-x="1000" >
<font-face font-family="fontello" font-weight="400" font-stretch="normal" units-per-em="1000" ascent="850" descent="-150" />
<missing-glyph horiz-adv-x="1000" />
<glyph glyph-name="catalogs" unicode="&#xe800;" d="M833 660h-686c-20 0-34 13-34 33s14 34 34 34h686c20 0 34-14 34-34s-14-33-34-33l0 0z m0-177h-686c-20 0-34 14-34 34s14 33 34 33h686c20 0 34-13 34-33s-14-34-34-34l0 0z m0-173h-686c-20 0-34 13-34 33s14 34 34 34h686c20 0 34-14 34-34s-14-33-34-33l0 0z m0-177h-686c-20 0-34 14-34 34s14 33 34 33h686c20 0 34-13 34-33s-14-34-34-34l0 0z m0-173h-686c-20 0-34 13-34 33s14 34 34 34h686c20 0 34-14 34-34s-14-33-34-33l0 0z" horiz-adv-x="1000" />

<glyph glyph-name="clock" unicode="&#xe801;" d="M507-40c-214 0-390 173-390 390 0 213 173 390 390 390 213 0 390-173 390-390 0-217-177-390-390-390l0 0z m0 710c-177 0-324-143-324-323s144-324 324-324c176 0 323 144 323 324s-147 323-323 323l0 0z m0-353c-20 0-34 13-34 33v240c0 20 14 33 34 33s33-13 33-33v-240c0-20-13-33-33-33l0 0z m0 333c-20 0-34 13-34 33v20c0 20 14 34 34 34s33-14 33-34v-20c0-20-13-33-33-33l0 0z m0-690c-20 0-34 13-34 33v24c0 20 14 33 34 33s33-13 33-33v-20c0-20-13-37-33-37l0 0z m356 357h-20c-20 0-33 13-33 33 0 20 13 33 33 33h20c20 0 34-13 34-33 0-20-17-33-34-33l0 0z m-690 0h-23c-20 0-33 13-33 33 0 20 13 33 33 33h20c20 0 33-13 33-33 4-20-13-33-30-33l0 0z m484 280c-4 0-7 0-7 3-7 3-10 13-7 23l10 17c4 7 14 10 24 7 6-4 10-14 6-24l-10-16c-3-10-10-10-16-10l0 0z m-310-544c-4 0-7 0-7 4-7 3-10 13-7 23l10 17c4 6 14 10 24 6 6-3 10-13 6-23l-10-17c-6-6-13-10-16-10l0 0z m440 117c-4 0-7 0-7 3l-20 10c-7 4-10 14-7 24 4 6 14 10 24 6l16-10c7-3 10-13 7-23-3-7-7-10-13-10l0 0z m-544 313c-3 0-6 0-6 4l-17 10c-7 3-10 13-7 23 4 7 14 10 24 7l16-10c7-4 10-14 7-24-3-6-10-10-17-10l0 0z m114 114c-7 0-10 3-14 10l-13 13c-3 7-3 17 7 23 6 4 16 4 23-6l10-17c3-7 3-17-7-23-3 0-6 0-6 0l0 0z m310-544c-7 0-10 4-14 7l-10 17c-3 6-3 16 7 23 7 3 17 3 23-7l10-16c4-7 4-17-6-24-4 0-7 0-10 0l0 0z m-440 117c-7 0-10 3-14 10-3 7-3 17 7 23l17 10c6 4 16 4 23-6 3-7 3-17-7-24l-16-10c-4 0-7-3-10-3l0 0z m543 313c-7 0-10 4-13 10-4 7-4 17 6 24l17 10c7 3 17 3 23-7 4-7 4-17-6-23l-17-10c-7-4-7-4-10-4l0 0z m-363-266c-10 0-17 3-24 10-13 13-13 33 0 46l97 97c13 13 33 13 47 0 13-13 13-33 0-47l-97-96c-7-10-17-10-23-10l0 0z" horiz-adv-x="1000" />

<glyph glyph-name="delivery" unicode="&#xe802;" d="M263 143c-10 0-16 4-23 10l-87 84c-13 13-13 33 0 46 14 14 34 14 47 0l87-83c13-13 13-33 0-47-7-6-17-10-24-10l0 0z m140 14c-10 0-16 3-23 10-13 13-13 33 0 46l310 310c7 7 13 10 20 10l130 14c17 3 33-10 37-30 3-17-10-34-30-37l-120-13-304-304c-3-3-10-6-20-6l0 0z m-73 83c-10 0-17 3-23 10l-197 197c-7 3-10 13-10 23s3 17 10 23l197 197c13 13 33 13 46 0l197-197c13-13 13-33 0-46l-197-197c-3-7-13-10-23-10l0 0z m-147 230l150-150 150 150-153 147-147-147 0 0z m150-453c-26 0-53 10-73 30-20 20-30 46-30 73s10 53 30 73c40 40 110 40 150 0 20-20 30-46 30-73s-10-53-30-73c-20-20-47-30-77-30l0 0z m0 146c-10 0-20-3-26-10-7-6-10-16-10-26 0-10 3-20 10-27 13-13 40-13 56 0 17 17 17 40 0 57-10 0-20 6-30 6l0 0z" horiz-adv-x="1000" />

<glyph glyph-name="ideas" unicode="&#xe803;" d="M630 97h-250c-10 0-17 3-23 10-7 6-10 16-10 23 0 23-4 67-17 87-103 133-107 260-107 263 0 153 127 280 280 280 154 0 280-127 280-280 0 0 0-127-106-263-14-20-17-67-14-87 0-10-3-17-10-27-6-3-13-6-23-6l0 0z m-220 66h183c4 30 7 67 30 97 87 113 94 220 94 223 0 117-97 214-214 214-116 0-213-97-213-214 0 0 3-106 93-220 20-33 27-73 27-100l0 0z m223-140h-260c-20 0-33 14-33 34 0 20 13 33 33 33h260c20 0 34-13 34-33 0-20-14-34-34-34l0 0z m-30-73h-196c-20 0-34 13-34 33s14 34 34 34h196c20 0 34-14 34-34s-17-33-34-33l0 0z m-40 450c-10 0-16 7-20 13-3-6-10-13-20-13-10 0-16 7-20 13-3-6-10-13-20-13-10 0-16 7-20 13-3-6-10-13-20-13-16 0-23 13-26 20 0 0-4 3-4 3 0 0 4-3 7-3v33c10 0 17-6 20-13 3 7 10 13 20 13 10 0 17-6 20-13 3 7 10 13 20 13 10 0 17-6 20-13 3 7 10 13 20 13 10 0 17-6 20-13 3 7 10 13 20 13v-33c3 0 7 3 7 3 0 0 0-3-4-3 0-7-3-20-20-20l0 0z" horiz-adv-x="1000" />

<glyph glyph-name="letter-scribe" unicode="&#xe804;" d="M810 67h-607c-43 0-80 36-80 80v393c0 43 37 80 80 80h607c43 0 80-37 80-80v-397c-3-40-37-76-80-76l0 0z m-607 486c-6 0-13-6-13-13v-397c0-6 7-13 13-13h607c7 0 13 7 13 13v397c0 7-6 13-13 13h-607l0 0z m607-470h-607c-26 0-50 17-56 40-4 7 0 14 3 20l237 210c6 7 16 7 23 0 7-6 7-16 0-23l-227-200c4-10 14-13 20-13h607c7 0 17 3 20 10l-230 203c-7 7-7 17 0 23 7 7 17 7 23 0l240-213c7-3 7-13 4-17-10-23-34-40-57-40l0 0z m-303 150c-4 0-7 0-10 4l-347 306c-7 7-7 14-3 20 10 24 33 40 56 40h607c27 0 50-16 57-40 3-6 0-13-4-16l-343-307c-7-7-10-7-13-7l0 0z m-324 327l324-290 323 290c-7 7-13 10-20 10h-607c-6 0-16-3-20-10l0 0z" horiz-adv-x="1000" />

<glyph glyph-name="letters-unread" unicode="&#xe805;" d="M807 13h-604c-26 0-50 17-56 40-4 7 0 14 3 20l237 210c6 7 16 7 23 0 7-6 7-16 0-23l-227-200c7-7 14-10 20-10h607c7 0 17 3 20 10l-230 200c-7 7-7 17 0 23 7 7 17 7 23 0l240-213c7-3 7-13 4-17-10-23-34-40-60-40l0 0z m-304 270c-6 0-13 4-16 7l-100 100c-10 10-10 27 0 37 10 10 26 10 36 0l80-80 80 80c10 10 27 10 37 0 10-10 10-27 0-37l-100-100c-3-3-10-7-17-7l0 0z m0 27c-13 0-26 10-26 27v320c0 13 10 26 26 26 14 0 27-10 27-26v-320c0-17-10-27-27-27l0 0z m304-313h-604c-43 0-80 36-80 80v393c0 43 37 80 80 80h214c20 0 33-13 33-33 0-20-13-34-33-34h-214c-6 0-13-6-13-13v-397c0-6 7-13 13-13h607c7 0 13 7 13 13v397c0 7-6 13-13 13h-213c-20 0-34 14-34 34 0 20 14 33 34 33h213c43 0 80-37 80-80v-397c-3-40-40-76-83-76l0 0z m-304 166c-3 0-6 0-10 4l-343 306c-7 7-7 17 0 24 7 6 17 6 23 0l334-297 333 297c7 6 17 6 23 0 7-7 7-17 0-24l-343-306c-7-4-10-4-17-4l0 0z" horiz-adv-x="1000" />

<glyph glyph-name="logout" unicode="&#xe806;" d="M690 90c-7 0-13 3-20 7-13 10-17 33-7 46l147 200-147 200c-10 14-6 37 7 47 13 10 37 7 47-7l160-220c10-13 10-26 0-40l-160-220c-7-6-17-13-27-13l0 0z m160 220h-413c-20 0-34 13-34 33 0 20 14 34 34 34h413c20 0 33-14 33-34 0-16-16-33-33-33l0 0z m-693-353c-20 0-34 13-34 33v710c0 20 14 33 34 33s33-13 33-33v-710c0-20-13-33-33-33l0 0z m446 0h-446c-20 0-34 13-34 33 0 20 14 33 34 33h446c20 0 34-13 34-33 0-20-17-33-34-33l0 0z m0 710h-446c-20 0-34 13-34 33 0 20 14 33 34 33h446c20 0 34-13 34-33 0-20-17-33-34-33l0 0z" horiz-adv-x="1000" />

<glyph glyph-name="orders" unicode="&#xe807;" d="M853-13h-700c-20 0-33 13-33 33v237c0 20 13 33 33 33h217c20 0 33-13 33-33v-47h200v47c0 20 14 33 34 33h216c20 0 34-13 34-33v-237c0-17-14-33-34-33l0 0z m-666 66h633v170h-150v-13c0-37-30-67-67-67h-200c-36 0-66 30-66 67v13h-150v-170l0 0z m630 177c-20 0-34 13-34 33v234h-550v-234c0-20-13-33-33-33-20 0-33 13-33 33v267c0 20 13 33 33 33h617c20 0 33-13 33-33v-267c0-20-17-33-33-33l0 0z m-40 367h-540c-10 0-17 6-17 16 0 10 7 17 17 17h540c10 0 16-7 16-17 0-10-6-16-16-16l0 0z m-30 66h-477c-10 0-17 7-17 17 0 10 7 17 17 17h477c10 0 16-7 16-17 0-10-10-17-16-17l0 0z" horiz-adv-x="1000" />

<glyph glyph-name="payments" unicode="&#xe808;" d="M520 617v-17c10 0 20-3 30-7 7-3 17-10 20-16 3-7 10-10 10-17 3-7 3-10 3-17 0-6-3-10-6-13-4-3-10-7-14-7-10 0-16 7-20 17-3 13-13 23-26 27v-67c13-3 23-7 30-10 6-3 13-7 20-13 6-7 13-14 16-20 4-7 7-17 7-27 0-13-3-23-10-33-7-10-13-20-27-27-10-7-23-10-40-13v-40c0-7 0-10-3-14 0-3-3-3-7-3-3 0-6 0-6 3 0 4-4 7-4 10v44c-13 0-23 3-33 10-10 3-17 10-23 16-7 7-10 14-14 20-3 7-3 14-3 20 0 7 3 10 7 14 3 3 10 6 13 6 3 0 10 0 13-3 4-3 7-7 7-10 3-10 7-17 7-20 3-3 6-10 10-13 3-4 10-7 16-10v73c-13 3-26 10-36 13-10 4-17 14-24 20-6 10-10 20-10 34 0 20 7 33 17 46 13 14 30 20 50 20v24c0 10 3 13 10 13 17 0 20-3 20-13z m-20-110v63c-10-3-17-7-20-10-7-3-7-10-7-20 0-10 4-13 7-20 3-7 10-10 20-13z m20-47v-70c10 3 20 7 23 13 7 7 10 14 10 24 0 10-3 16-10 20-3 6-13 10-23 13z m387-247h-794c-20 0-36 17-36 37v433c0 20 16 34 36 34h794c20 0 36-17 36-37v-433c-3-17-16-34-36-34l0 0z m-757 70h720v364h-720v-364l0 0z m757-343h-794c-20 0-36 17-36 37v433c0 20 16 37 36 37s37-17 37-37v-397h720v397c0 20 17 37 37 37 20 0 36-17 36-37v-433c-3-20-16-37-36-37l0 0z m-514 637h-183c-10 0-17 6-17 16 0 10 7 17 17 17h187c10 0 16-7 16-17-3-10-10-16-20-16l0 0z m417 0h-187c-10 0-16 6-16 16 0 10 6 17 16 17h187c10 0 17-7 17-17 0-10-7-16-17-16l0 0z m-417-257h-183c-10 0-17 7-17 17 0 10 7 16 17 16h187c10 0 16-6 16-16-3-7-10-17-20-17l0 0z m417 0h-187c-10 0-16 7-16 17 0 10 6 16 16 16h187c10 0 17-6 17-16 0-7-7-17-17-17l0 0z m77-183h-767c-10 0-17 6-17 16 0 10 7 17 17 17h767c10 0 16-7 16-17 0-6-6-16-16-16l0 0z m0-80h-767c-10 0-17 6-17 16 0 10 7 17 17 17h767c10 0 16-7 16-17 0-10-6-16-16-16l0 0z" horiz-adv-x="1000" />

<glyph glyph-name="phone" unicode="&#xe809;" d="M470 460c-30 0-53-23-53-53s23-54 53-54c30 0 53 24 53 54s-23 53-53 53l0 0z m143 0c-30 0-53-23-53-53s23-54 53-54c30 0 54 24 54 54s-24 53-54 53l0 0z m140 0c-30 0-53-23-53-53s23-54 53-54c30 0 54 24 54 54s-24 53-54 53l0 0z m-283-143c-30 0-53-24-53-54 0-30 23-53 53-53 30 0 53 23 53 53 0 30-23 54-53 54l0 0z m143 0c-30 0-53-24-53-54 0-30 23-53 53-53 30 0 54 23 54 53 0 30-24 54-54 54l0 0z m140 0c-30 0-53-24-53-54 0-30 23-53 53-53 30 0 54 23 54 53 0 30-24 54-54 54l0 0z m-283-140c-30 0-53-24-53-54 0-30 23-53 53-53 30 0 53 23 53 53 0 30-23 54-53 54l0 0z m143 0c-30 0-53-24-53-54 0-30 23-53 53-53 30 0 54 23 54 53 0 30-24 54-54 54l0 0z m140 0c-30 0-53-24-53-54 0-30 23-53 53-53 30 0 54 23 54 53 0 30-24 54-54 54l0 0z m20-217h-353v67h353c37 0 67 30 67 66v514c0 36-30 66-67 66h-353v67h353c74 0 134-60 134-133v-510c0-77-60-137-134-137l0 0z m-460 0c-26 0-50 3-76 10-14 3-24 7-37 13l-10 4-7 10c-50 100-76 220-76 350v3c0 130 26 250 76 350l7 10 13 7c14 6 24 10 37 13 40 10 83 13 123 7l27-4v-260h-73v-246h73v-260l-27-4c-16-3-33-3-50-3l0 0z m-73 80c7-3 10-3 17-7 20-6 43-10 66-6v133h-6c-37 0-67 30-67 67v246c0 37 30 67 67 67h6v133c-23 0-43-3-66-6-7 0-10-4-17-7-40-87-63-193-63-307l0-3 0-3c0-114 23-220 63-307l0 0z m567 460h-384v127h384v-127l0 0z m-350 33h316v60h-316v-60l0 0z" horiz-adv-x="1000" />

<glyph glyph-name="phone-mobile" unicode="&#xe80a;" d="M727-50h-467c-20 0-33 13-33 33v734c0 20 13 33 33 33h467c20 0 33-13 33-33v-734c0-20-13-33-33-33l0 0z m-434 67h400v666h-400v-666l0 0z m367 150h-333c-10 0-17 6-17 16v424c0 10 7 16 17 16h333c10 0 17-6 17-16v-424c0-10-7-16-17-16l0 0z m-317 33h300v390h-300v-390l0 0z" horiz-adv-x="1000" />

<glyph glyph-name="product-details" unicode="&#xe80b;" d="M867 610h-450c-20 0-34 13-34 33 0 20 14 34 34 34h450c20 0 33-14 33-34 0-20-17-33-33-33l0 0z m-610-57h-110c-20 0-34 14-34 34v110c0 20 14 33 34 33h110c20 0 33-13 33-33v-110c0-17-13-34-33-34l0 0z m-77 67h43v43h-43v-43l0 0z m687-310h-450c-20 0-34 13-34 33 0 20 14 34 34 34h450c20 0 33-14 33-34 0-20-17-33-33-33l0 0z m-610-57h-110c-20 0-34 14-34 34v110c0 20 14 33 34 33h110c20 0 33-13 33-33v-110c0-17-13-34-33-34l0 0z m-77 67h43v43h-43v-43l0 0z m687-310h-450c-20 0-34 13-34 33 0 20 14 34 34 34h450c20 0 33-14 33-34 0-20-17-33-33-33l0 0z m-610-57h-110c-20 0-34 14-34 34v110c0 20 14 33 34 33h110c20 0 33-13 33-33v-110c0-17-13-34-33-34l0 0z m-77 67h43v43h-43v-43l0 0z" horiz-adv-x="1000" />

<glyph glyph-name="product-short" unicode="&#xe80c;" d="M330 503h-173c-20 0-34 14-34 34v173c0 20 14 33 34 33h173c20 0 33-13 33-33v-173c0-20-16-34-33-34l0 0z m-140 67h107v107h-107v-107l0 0z m417-67h-174c-20 0-33 14-33 34v173c0 20 13 33 33 33h174c20 0 33-13 33-33v-173c0-20-17-34-33-34l0 0z m-140 67h106v107h-106v-107l0 0z m416-67h-173c-20 0-33 14-33 34v173c0 20 13 33 33 33h173c20 0 34-13 34-33v-173c0-20-17-34-34-34l0 0z m-140 67h107v107h-107v-107l0 0z m-413-347h-173c-20 0-34 14-34 34v173c0 20 14 33 34 33h173c20 0 33-13 33-33v-173c0-20-16-34-33-34l0 0z m-140 67h107v107h-107v-107l0 0z m417-67h-174c-20 0-33 14-33 34v173c0 20 13 33 33 33h174c20 0 33-13 33-33v-173c0-20-17-34-33-34l0 0z m-140 67h106v107h-106v-107l0 0z m416-67h-173c-20 0-33 14-33 34v173c0 20 13 33 33 33h173c20 0 34-13 34-33v-173c0-20-17-34-34-34l0 0z m-140 67h107v107h-107v-107l0 0z m-413-347h-173c-20 0-34 14-34 34v173c0 20 14 33 34 33h173c20 0 33-13 33-33v-173c0-20-16-34-33-34l0 0z m-140 67h107v107h-107v-107l0 0z m417-67h-174c-20 0-33 14-33 34v173c0 20 13 33 33 33h174c20 0 33-13 33-33v-173c0-20-17-34-33-34l0 0z m-140 67h106v107h-106v-107l0 0z m416-67h-173c-20 0-33 14-33 34v173c0 20 13 33 33 33h173c20 0 34-13 34-33v-173c0-20-17-34-34-34l0 0z m-140 67h107v107h-107v-107l0 0z" horiz-adv-x="1000" />

<glyph glyph-name="sales" unicode="&#xe80d;" d="M657 363c-7 0-10 0-17 4-53 30-123 43-190 36-17-3-33 10-33 30 0 17 10 34 30 34 80 6 160-10 226-47 17-10 20-27 14-43-7-7-17-14-30-14l0 0z m-77 34c-100 0-183 80-183 183 0 100 80 183 183 183s183-80 183-183c-3-100-83-183-183-183l0 0z m0 296c-63 0-117-53-117-116s54-117 117-117c63 0 117 53 117 117s-54 116-117 116l0 0z m0-200c-47 0-87 40-87 87s40 87 87 87 87-40 87-87-40-87-87-87l0 0z m0 140c-30 0-53-23-53-53s23-53 53-53 53 23 53 53-23 53-53 53l0 0z m110-733h-50c-37 0-67 27-73 60-40-7-84-7-127-3-7-34-37-57-73-57h-50c-40 0-74 33-74 73v67c-33 30-60 63-76 103-40 0-70 34-70 74v50c0 40 33 73 70 73 16 37 43 73 76 103v50c0 14 7 24 17 27 37 20 80 13 113-10 27 7 54 13 80 17l7-64c-30-3-57-10-83-20-14-3-27 0-37 10-7 10-20 17-33 17v-43c0-10-4-20-14-27-36-30-63-63-76-103-4-14-17-20-30-20h-20c-7 0-10-4-10-10v-50c0-7 3-10 10-10h20c13 0 26-10 30-20 13-40 40-74 76-104 7-6 14-16 14-26v-80c0-7 3-10 10-10h50c6 0 10 3 10 10v20c0 10 3 20 13 23 7 7 17 7 27 7 56-14 116-10 170 3 10 3 20 0 26-7 7-6 14-16 14-26v-24c0-6 3-10 10-10h50c6 0 10 4 10 10v94c0 10 3 16 10 23 46 40 73 93 73 150 0 7 3 13 7 20-7 3-10 10-10 17-14 63-60 116-130 150l26 56c60-30 110-76 140-126 0 13 7 23 17 30 13 6 27 3 37-7 20-20 30-43 30-73 0-37-20-74-54-90-6-64-33-124-83-170v-80c3-34-30-67-70-67l0 0z" horiz-adv-x="1000" />

<glyph glyph-name="search" unicode="&#xe80e;" d="M460 67c-183 0-333 150-333 333 0 183 150 333 333 333 183 0 333-150 333-333 0-183-150-333-333-333l0 0z m0 596c-147 0-267-120-267-266 0-147 120-267 267-267 147 0 267 120 267 267 0 146-120 266-267 266l0 0z m-187-263h-33c0 120 100 220 220 220v-33c-103 0-187-87-187-187l0 0z m584-443c-10 0-17 3-24 10l-186 186c-14 14-14 34 0 47s33 13 46 0l187-187c13-13 13-33 0-46-7-7-17-10-23-10l0 0z" horiz-adv-x="1000" />

<glyph glyph-name="show-orders" unicode="&#xe80f;" d="M840 207h-450c-17 0-27 10-33 23l-84 310c-3 10 0 20 7 30 7 7 17 13 27 13h620c10 0 20-3 26-13 7-7 10-20 7-30l-87-310c-6-13-20-23-33-23l0 0z m-423 66h396l67 244h-530l67-244 0 0z m-27-66c-13 0-27 10-33 23l-110 407-104 3c-20 0-33 17-33 33 0 17 17 34 33 34l127-7c13 0 27-10 30-23l117-430c3-17-7-37-24-40 4 0 0 0-3 0l0 0z m80-200c-50 0-93 40-93 93s40 93 93 93c50 0 90-40 90-93s-40-93-90-93l0 0z m0 116c-13 0-27-10-27-26 0-14 10-27 27-27 13 0 23 10 23 27 4 16-10 26-23 26l0 0z m280-116c-50 0-93 40-93 93s40 93 93 93c50 0 93-40 93-93s-43-93-93-93l0 0z m0 116c-13 0-27-10-27-26 0-14 10-27 27-27 13 0 27 10 27 27-4 16-14 26-27 26l0 0z m-157 190h-383c-20 0-33 17-33 34s16 33 33 33h387c20 0 33-17 33-33s-17-34-37-34l0 0z m64 104h-554c-20 0-33 16-33 33s17 33 33 33h554c20 0 33-16 33-33s-17-33-33-33l0 0z" horiz-adv-x="1000" />

<glyph glyph-name="sort-asc" unicode="&#xe810;" d="M847 193h-687c-20 0-33-13-33-33s13-33 33-33h690c20 0 33 13 33 33s-16 33-36 33l0 0z m-100 174h-587c-20 0-33-14-33-34s13-33 33-33h587c20 0 33 13 33 33s-17 34-33 34l0 0z m-300 176h-287c-20 0-33-13-33-33s13-33 33-33h287c20 0 33 13 33 33s-17 33-33 33l0 0z" horiz-adv-x="1000" />

<glyph glyph-name="sort-desc" unicode="&#xe811;" d="M847 477h-687c-20 0-33 13-33 33s13 33 33 33h690c20 0 33-13 33-33s-16-33-36-33l0 0z m-100-177h-587c-20 0-33 13-33 33s13 34 33 34h587c20 0 33-14 33-34s-17-33-33-33l0 0z m-300-173h-287c-20 0-33 13-33 33s13 33 33 33h287c20 0 33-13 33-33s-17-33-33-33l0 0z" horiz-adv-x="1000" />

<glyph glyph-name="statistic" unicode="&#xe812;" d="M893-33h-176c-20 0-34 13-34 33v717c0 20 14 33 34 33h176c20 0 34-13 34-33v-717c0-20-17-33-34-33l0 0z m-143 66h110v650h-110v-650l0 0z m-150-66h-177c-20 0-33 13-33 33v307c0 20 13 33 33 33h177c20 0 33-13 33-33v-307c0-20-13-33-33-33l0 0z m-143 66h110v240h-110v-240l0 0z m-147-66h-177c-20 0-33 13-33 33v453c0 20 13 34 33 34h177c20 0 33-14 33-34v-456c0-17-16-30-33-30l0 0z m-143 66h110v387h-110v-387l0 0z" horiz-adv-x="1000" />

<glyph glyph-name="timer" unicode="&#xe813;" d="M733 503c-6 0-13 4-20 7-13 10-16 33-6 47l63 83c10 13 33 17 47 7 13-10 16-34 6-47l-63-83c-7-10-17-14-27-14l0 0z m-236-566c-200 0-360 163-360 360 0 200 163 360 360 360 200 0 360-164 360-360 3-200-160-360-360-360l0 0z m0 653c-164 0-294-133-294-293s134-294 294-294c163 0 293 134 293 294s-130 293-293 293l0 0z m0-327c-20 0-34 14-34 34v220c0 20 14 33 34 33 20 0 33-13 33-33v-224c0-16-13-30-33-30l0 0z m90 434h-180c-20 0-34 13-34 33 0 20 14 33 34 33h180c20 0 33-13 33-33 0-20-13-33-33-33l0 0z m-90-107c-20 0-34 13-34 33v77c0 20 14 33 34 33 20 0 33-13 33-33v-77c0-16-13-33-33-33l0 0z" horiz-adv-x="1000" />

<glyph glyph-name="user-data" unicode="&#xe814;" d="M847 20h-684c-20 0-33 13-33 33v547c0 20 13 33 33 33h684c20 0 33-13 33-33v-543c0-20-17-37-33-37l0 0z m-650 67h616v480h-616v-480l0 0z m173 220c-47 0-87 43-87 96 0 54 40 97 87 97 47 0 87-43 87-97 0-53-40-96-87-96l0 0z m0 126c-10 0-20-13-20-30 0-16 10-30 20-30 10 0 20 14 20 30 0 17-10 30-20 30l0 0z m103-310h-210c-16 0-33 14-33 30l-3 67c-4 33 20 70 53 80 57 20 120 20 177 0 33-13 56-47 53-83l-3-67c0-13-17-27-34-27l0 0z m-176 67h146l4 37c0 3-7 13-10 13-40 13-87 13-130 0-7-3-10-10-10-13l0-37 0 0z m340 470h-250c-34 0-60-27-60-60s26-60 60-60h250c33 0 60 27 60 60s-27 60-60 60l0 0z m76-303h-140c-20 0-33 13-33 33 0 20 13 33 33 33h140c20 0 34-13 34-33 0-20-14-33-34-33l0 0z m0-107h-140c-20 0-33 13-33 33 0 20 13 34 33 34h140c20 0 34-14 34-34 0-16-14-33-34-33l0 0z" horiz-adv-x="1000" />

<glyph glyph-name="arrow" unicode="&#xe815;" d="M340 117c-10 0-17 3-23 10l-180 180c-14 13-14 33 0 46l180 180c13 14 33 14 46 0 14-13 14-33 0-46l-156-157 156-157c14-13 14-33 0-46-6-7-13-10-23-10l0 0z m-130 180c-20 0-33 13-33 33 0 20 13 33 33 33l650 0c20 0 33-13 33-33 0-20-13-33-33-33l-650 0 0 0z" horiz-adv-x="1000" />

<glyph glyph-name="auth" unicode="&#xe816;" d="M507-53c-97 0-197 6-294 23-36 7-70 43-73 80-3 27-7 53-7 83-3 37 20 80 54 100 63 30 130 50 200 64l0 6c-20 17-30 37-34 57 0 7 0 13-3 20-17 7-30 20-30 37l-7 76c0 14 4 24 10 34 4 3 7 6 7 6l-3 27c-4 27-10 90 40 130 33 30 83 50 140 50 56 0 110-20 143-50 47-40 40-103 37-130l0-7c0-6 0-10-4-16 4-4 7-4 7-7 7-10 13-23 10-37l-7-76c0-17-13-34-30-40l-3-20c0-20-13-40-33-54l0-6c70-10 136-34 196-64 34-16 60-63 54-100l-7-83c-3-40-37-73-73-80-94-13-194-23-290-23l0 0z m-124 500c0 0 4 0 4 0 13-4 20-14 23-27 3-17 3-33 7-50 0-3 6-10 16-17 7-6 14-13 17-23l7-53c0-10 0-17-7-27-7-7-13-13-23-13-74-10-147-30-210-60-10-7-17-24-17-34 3-26 7-53 7-83 0-10 10-20 16-23 187-30 380-30 567 0 7 0 17 13 17 23l6 80c0 10-6 27-20 33-63 30-136 50-210 60-10 0-16 7-23 14-7 6-7 16-7 26l7 54c0 10 7 16 17 23 10 7 13 13 13 17l7 50c0 13 10 23 23 26 0 0 3 0 3 0l10 40c-3 0-3 4-6 4-10 6-17 20-14 30l0 3c0 13 4 27 4 40l0 7c3 26 3 56-17 73-20 20-57 33-97 33-40 0-73-13-93-33-23-20-20-50-20-73l10-50c0-14-3-24-13-30 0 0-4-4-7-4l3-36 0 0z" horiz-adv-x="1000" />

<glyph glyph-name="callback" unicode="&#xe817;" d="M720-43c-150 0-303 70-420 186l-3 4c-124 123-190 280-187 433l0 10 7 10c10 13 20 27 33 37 40 40 87 70 140 93 7 3 13 3 23 3 17 0 60-10 70-36 17-50 40-117 57-180 3-17 0-60-23-77l-60-37c0 0 0-10 6-20 24-30 50-63 80-93 30-30 60-57 90-77 7-3 14-6 20-6 4 0 4 0 4 0l36 56c17 27 57 27 64 27 3 0 10 0 13 0 77-17 123-33 183-60 27-13 44-60 30-90-20-53-50-100-93-140-10-10-23-23-37-33l-10-7-23-3 0 0z m-543 610c0-130 63-267 166-374l4-3c106-107 240-167 370-167 6 7 16 14 23 20 33 34 60 74 77 117 0 0 0 3-4 7-50 23-93 36-163 53-3 0-7 0-7 0l-33-53c-20-34-77-40-117-10-33 23-66 53-100 83-33 33-60 67-86 100-17 23-24 50-17 73 3 20 13 34 30 44l53 33c0 3 0 7 0 10-13 53-36 113-53 163-3 0-7 4-10 4-40-20-80-47-113-80-7-7-14-14-20-20l0 0z m550-197c0 0 0 0 0 0l-167 10c-17 0-30 13-30 30l-10 163c0 20 13 34 30 37 20 0 33-13 37-30l10-133 133-10c20 0 33-17 30-37 0-17-13-30-33-30l0 0z m-147 27c-10 0-17 3-23 10-14 13-14 33 0 46l183 184c13 13 33 13 47 0 13-14 13-34 0-47l-184-183c-6-7-16-10-23-10l0 0z" horiz-adv-x="1000" />

<glyph glyph-name="cart" unicode="&#xe818;" d="M807 207h-447c-17 0-27 10-33 23l-84 310c-3 10 0 20 4 30 6 7 16 13 26 13h620c10 0 20-3 27-13 7-7 10-20 7-30l-87-310c-3-13-17-23-33-23l0 0z m-420 66h396l67 244h-530l67-244 0 0z m-27-66c-13 0-27 10-33 23l-110 407-104 3c-20 0-33 17-33 33 0 17 17 34 33 34l127-7c13 0 27-10 30-23l117-430c3-17-7-37-24-40 4 0 0 0-3 0l0 0z m80-200c-50 0-93 40-93 93s40 93 93 93 93-40 93-93-43-93-93-93l0 0z m0 116c-13 0-27-10-27-26 0-14 10-27 27-27 13 0 27 10 27 27-4 16-14 26-27 26l0 0z m277-116c-50 0-94 40-94 93s40 93 94 93c50 0 93-40 93-93s-43-93-93-93l0 0z m0 116c-14 0-27-10-27-26 0-14 10-27 27-27 13 0 26 10 26 27 0 16-13 26-26 26l0 0z" horiz-adv-x="1000" />

<glyph glyph-name="up" unicode="&#xe819;" d="M0 354q0 26 18 44l391 390 390-390q18-18 18-44 0-26-18-43-18-18-43-18t-43 18l-243 243v-642q0-25-18-43t-43-18q-26 0-44 18t-17 43v642l-244-243q-18-18-43-18t-43 18q-18 17-18 43z" horiz-adv-x="817.4" />

<glyph glyph-name="right" unicode="&#xe81a;" d="M0 347q0 26 18 43t43 17h642l-242 244q-19 18-19 44t19 42q17 19 42 19t44-19l390-390-390-391q-20-18-44-18t-42 18-19 44 19 43l242 242h-642q-25 0-43 18t-18 44z" horiz-adv-x="938" />

<glyph glyph-name="png" unicode="&#xe81b;" d="M560-30c-10 0-17 7-17 17v200c0 10 7 16 17 16h200c10 0 17-6 17-16 0-10-7-17-17-17h-183v-183c0-7-7-17-17-17l0 0z m0-17h-343c-20 0-34 14-34 34v200c0 20 14 33 34 33 20 0 33-13 33-33v-167h297l180 180v440h-510c-20 0-34 13-34 33 0 20 14 34 34 34h543c20 0 33-14 33-34v-483c0-10-3-17-10-23l-200-200c-6-10-13-14-23-14l0 0z m-223 557v-40c0-50-24-73-70-73h-24v-114h-46v300h70c46 0 70-23 70-73z m-94 30v-103h24c16 0 23 6 23 30v46c0 24-7 30-23 30h-24z m160-40v-220h-43v303h60l50-180v180h43v-303h-50l-60 220z m214-50h66v-97c0-50-23-76-70-76s-70 26-70 76v157c0 50 24 77 70 77s70-27 70-77v-27h-46v34c0 23-10 30-24 30-16 0-23-7-23-30v-167c0-20 10-30 23-30 17 0 24 7 24 30v57h-24v43z" horiz-adv-x="1000" />

<glyph glyph-name="rar" unicode="&#xe81c;" d="M570-30c-10 0-17 7-17 17v200c0 10 7 16 17 16h200c10 0 17-6 17-16 0-10-7-17-17-17h-183v-183c0-7-7-17-17-17l0 0z m0-17h-343c-20 0-34 14-34 34v200c0 20 14 33 34 33 20 0 33-13 33-33v-167h297l180 180v440h-510c-20 0-34 13-34 33 0 20 14 34 34 34h543c20 0 33-14 33-34v-483c0-10-3-17-10-23l-200-200c-3-10-13-14-23-14l0 0z m-263 327c-4 7-4 13-4 37v46c0 27-10 40-30 40h-20v-123h-46v303h73c50 0 70-23 70-70v-23c0-30-10-50-30-60 23-10 30-33 30-63v-47c0-13 0-27 7-37h-50z m-54 260v-90h20c17 0 30 7 30 33v30c0 24-6 30-23 30h-27z m284-260h-47l-7 57h-60l-6-57h-44l44 303h70l50-303z m-110 97h46l-23 153-23-153z m230-97c-4 7-4 13-4 37v46c0 27-10 40-30 40h-16v-123h-47v303h73c47 0 67-20 67-66v-24c0-30-10-50-30-60 23-10 30-33 30-63v-47c0-13 0-26 7-36h-50z m-50 260v-90h20c16 0 30 7 30 33v30c0 24-7 30-24 30h-26z" horiz-adv-x="1000" />

<glyph glyph-name="doc" unicode="&#xe81d;" d="M577-30c-10 0-17 7-17 17v200c0 10 7 16 17 16h200c10 0 16-6 16-16 0-10-6-17-16-17h-184v-183c0-7-10-17-16-17l0 0z m0-17h-347c-20 0-33 14-33 34v200c0 20 13 33 33 33 20 0 33-13 33-33v-167h297l180 180v440h-510c-20 0-33 13-33 33 0 20 13 34 33 34h543c20 0 34-14 34-34v-483c0-10-4-17-10-23l-200-200c-4-10-14-14-20-14l0 0z m-367 630h77c46 0 70-26 70-73v-153c0-50-24-74-70-74h-77v300z m50-43v-217h27c16 0 23 7 23 30v157c0 23-10 30-23 30h-27z m123-27c0 50 27 77 74 77 46 0 73-27 73-77v-156c0-50-27-77-73-77-47 0-74 27-74 77v156z m50-163c0-20 10-30 24-30s23 7 23 30v167c0 23-10 30-23 30s-24-10-24-30v-167z m264 43v-40c0-50-24-76-70-76s-70 26-70 76v157c0 50 23 77 70 77s70-27 70-77v-27h-47v34c0 23-10 30-23 30-17 0-24-7-24-30v-167c0-20 10-30 24-30 16 0 23 7 23 30v43h47z" horiz-adv-x="1000" />

<glyph glyph-name="jpg" unicode="&#xe81e;" d="M587-30c-10 0-17 7-17 17v200c0 10 7 16 17 16h200c10 0 16-6 16-16 0-10-6-17-16-17h-184v-183c0-7-6-17-16-17l0 0z m0-17h-344c-20 0-33 14-33 34v200c0 20 13 33 33 33 20 0 34-13 34-33v-167h296l180 180v440h-510c-20 0-33 13-33 33 0 20 13 34 33 34h544c20 0 33-14 33-34v-483c0-10-3-17-10-23l-200-200c-7-10-13-14-23-14l0 0z m-377 370c7 0 10 0 17 0 16 0 26 7 26 30v230h47v-226c0-60-33-77-70-77-10 0-17 0-23 0v43z m267 187v-40c0-50-24-73-70-73h-24v-114h-50v300h70c50 0 74-23 74-73z m-94 30v-103h24c16 0 23 6 23 30v46c0 24-7 30-23 30h-24z m187-90h67v-97c0-50-24-76-70-76-47 0-70 26-70 76v157c0 50 23 77 70 77 46 0 70-27 70-77v-27h-47v34c0 23-10 30-23 30-17 0-24-7-24-30v-167c0-20 10-30 24-30 16 0 23 7 23 30v57h-23v43z" horiz-adv-x="1000" />

<glyph glyph-name="pdf" unicode="&#xe81f;" d="M587-30c-10 0-17 7-17 17v200c0 10 7 16 17 16h200c10 0 16-6 16-16 0-10-6-17-16-17h-184v-183c0-7-6-17-16-17l0 0z m0-17h-344c-20 0-33 14-33 34v200c0 20 13 33 33 33 20 0 34-13 34-33v-167h296l180 180v440h-510c-20 0-33 13-33 33 0 20 13 34 33 34h544c20 0 33-14 33-34v-483c0-10-3-17-10-23l-200-200c-3-10-13-14-23-14l0 0z m-224 557v-40c0-50-23-73-70-73h-23v-114h-47v300h70c47 0 70-23 70-73z m-93 30v-103h23c17 0 24 6 24 30v46c0 24-7 30-24 30h-23z m117 43h76c47 0 70-26 70-73v-153c0-50-23-74-70-74h-76v300z m46-43v-217h27c17 0 23 7 23 30v157c0 23-10 30-23 30h-27z m177-90h60v-43h-60v-127h-47v303h127v-43h-80v-90z" horiz-adv-x="1000" />

<glyph glyph-name="arrow-back" unicode="&#xe820;" d="M307 290c-10 0-17 3-24 10l-153 153c-13 14-13 34 0 47l153 153c14 14 34 14 47 0 13-13 13-33 0-46l-130-130 130-130c13-14 13-34 0-47-3-7-13-10-23-10l0 0z m363-273h-517c-20 0-33 13-33 33 0 20 13 33 33 33h514c100 0 180 80 180 180 0 100-80 180-180 180h-490c-20 0-34 14-34 34 0 20 14 33 34 33h490c136 0 246-110 246-247 0-133-110-246-243-246l0 0z" horiz-adv-x="1000" />

<glyph glyph-name="attention-question" unicode="&#xe821;" d="M350 427c0 16 7 30 17 46 10 17 23 30 43 40 20 10 43 17 67 17 23 0 46-3 63-13 20-10 33-20 43-37 10-17 14-33 14-50 0-13-4-27-10-37-7-10-14-20-20-26-7-7-24-20-44-40-6-7-10-10-13-14-3-3-7-6-7-10 0-3-3-6-3-10 0-3-3-10-3-16-4-17-14-27-30-27-10 0-17 3-24 10-6 7-10 13-10 27 0 13 4 26 7 36 3 10 10 20 17 27 6 7 16 17 30 27 10 10 16 16 23 20 3 3 10 10 13 16 4 7 4 14 4 20 0 14-4 24-14 34-10 10-23 13-36 13-17 0-30-3-40-13-10-10-17-24-24-40-6-20-16-27-33-27-10 0-17 3-23 10-4 0-7 10-7 17z m120-274c-10 0-20 4-27 10-6 7-10 17-10 27 0 10 4 20 10 27 7 6 17 10 27 10 10 0 20-4 27-10 6-7 10-17 10-27 0-10-4-20-10-27-7-6-17-10-27-10z m3-203c-103 0-203 40-276 113-74 74-114 174-114 277s40 203 117 277c73 73 173 113 277 113 103 0 203-40 276-113 154-154 154-404 0-557-76-67-173-110-280-110l0 0z m0 720c-86 0-170-33-230-97-60-60-96-143-96-230s33-170 96-230c64-63 144-96 230-96 87 0 170 33 230 96 127 127 127 334 0 460-60 64-143 97-230 97l0 0z" horiz-adv-x="1000" />

<glyph glyph-name="attention-yeas" unicode="&#xe822;" d="M457 210c-10 0-17 3-24 10l-86 90c-14 13-14 33 0 47 13 13 33 13 46 0l60-64 167 204c10 13 33 16 47 3 13-13 16-33 3-47l-190-233c-3-7-13-10-23-10 0 0 0 0 0 0l0 0z m40-260c-104 0-204 40-277 113-153 157-153 404 0 557 73 73 173 113 277 113 103 0 203-40 276-113 154-153 154-403 0-557-73-70-173-113-276-113l0 0z m0 720c-87 0-170-33-230-97-127-126-127-333 0-460 60-63 143-96 230-96 86 0 170 33 230 96 126 127 126 334 0 460-60 64-144 97-230 97l0 0z" horiz-adv-x="1000" />

<glyph glyph-name="close" unicode="&#xe823;" d="M250 60c-10 0-17 3-23 10-14 13-14 33 0 47l513 516c13 14 33 14 47 0 13-13 13-33 0-46l-514-517c-6-7-16-10-23-10l0 0z m513 0c-10 0-16 3-23 10l-513 513c-14 14-14 34 0 47 13 13 33 13 46 0l514-513c13-14 13-34 0-47-7-7-14-10-24-10l0 0z" horiz-adv-x="1000" />

<glyph glyph-name="yeas" unicode="&#xe824;" d="M377 20c-10 0-17 3-24 10l-220 233c-13 14-13 34 0 47 14 13 34 13 47 0l193-203 464 566c13 14 33 17 46 4 14-14 17-34 4-47l-487-597c-3-10-13-13-23-13 0 0 0 0 0 0l0 0z" horiz-adv-x="1000" />

<glyph glyph-name="left" unicode="&#xe825;" d="M0 353l390 391q19 18 44 18 25 0 43-18t18-44-18-43l-243-243h642q25 0 43-18t18-43-18-43-43-18h-642l243-243q18-18 18-44t-18-43-43-18-44 18z" horiz-adv-x="938" />

<glyph glyph-name="down" unicode="&#xe826;" d="M0 283q0 25 18 43t44 18 42-18l244-243v642q0 25 18 43t43 18 43-18 18-43v-642l243 243q18 18 43 18t43-18q18-18 18-43t-18-44l-390-390-391 390q-18 20-18 44z" horiz-adv-x="817.4" />

<glyph glyph-name="address" unicode="&#xe827;" d="M497-53c-7 0-17 3-20 6-34 27-320 277-320 460 0 190 153 344 343 344 190 0 343-154 343-344 0-180-286-430-320-460-10-3-20-6-26-6l0 0z m0 740c-150 0-277-124-277-277 0-117 183-307 277-390 93 83 276 273 276 390-3 153-126 277-276 277l0 0z m0-440c-94 0-167 73-167 166 0 94 73 167 167 167 93 0 166-73 166-167 0-93-76-166-166-166l0 0z m0 266c-57 0-100-43-100-100s43-100 100-100 100 44 100 100-47 100-100 100l0 0z" horiz-adv-x="1000" />

<glyph glyph-name="attention" unicode="&#xe828;" d="M463 260l-6 110c0 20-4 37-4 47 0 13 4 23 10 30 7 6 17 10 27 10 13 0 23-4 27-14 3-10 6-23 6-40 0-10 0-20 0-30l-10-113c0-13-3-23-6-30-4-7-10-10-17-10-7 0-13 3-17 10-3 7-6 17-10 30z m27-150c-10 0-17 3-23 10-7 7-10 13-10 27 0 10 3 16 10 23 6 7 13 10 23 10 10 0 17-3 23-10 7-7 10-13 10-23 0-10-3-20-10-27-6-7-13-10-23-10z m413-153h-820c-13 0-23 6-30 16-6 10-6 24 0 34l414 706c13 20 46 20 56 0l410-706c7-10 7-24 0-34-6-10-16-16-30-16l0 0z m-760 66h704l-354 607-350-607 0 0z" horiz-adv-x="1000" />

<glyph glyph-name="down-open" unicode="&#xf004;" d="M0 533q0 25 18 43t44 18 42-18l305-303 304 303q18 18 43 18t43-18q18-18 18-43t-18-43l-390-391-391 391q-18 19-18 43z" horiz-adv-x="817.4" />

<glyph glyph-name="up-open" unicode="&#xf005;" d="M0 167q0 26 18 43l391 391 390-391q17-17 17-43 0-26-17-44-18-17-44-17t-43 17l-303 305-305-305q-18-17-43-17t-43 17q-18 18-18 44z" horiz-adv-x="816.9" />

<glyph glyph-name="right-open" unicode="&#xf006;" d="M0 0q0 25 18 43l305 304-305 304q-18 18-18 44t18 43 44 18 43-18l390-391-390-391q-19-18-43-18t-44 18q-18 18-18 44z" horiz-adv-x="495.1" />

<glyph glyph-name="left-open" unicode="&#xf007;" d="M0 353l391 391q18 18 43 18 24 0 43-18 18-18 18-44t-18-43l-304-304 304-305q18-17 18-43t-18-43q-18-18-43-18t-43 18z" horiz-adv-x="495.1" />

<glyph glyph-name="twitter" unicode="&#xf099;" d="M904 622q-37-54-90-93 0-8 0-23 0-73-21-145t-64-139-103-117-144-82-181-30q-151 0-276 81 19-2 43-2 126 0 224 77-59 1-105 36t-64 89q19-3 34-3 24 0 48 6-63 13-104 62t-41 115v2q38-21 82-23-37 25-59 64t-22 86q0 49 25 91 68-83 164-133t208-55q-5 21-5 41 0 75 53 127t127 53q79 0 132-57 61 12 115 44-21-64-80-100 52 6 104 28z" horiz-adv-x="928.6" />

<glyph glyph-name="facebook" unicode="&#xf09a;" d="M535 843v-147h-87q-48 0-65-20t-17-60v-106h164l-22-165h-142v-424h-171v424h-142v165h142v122q0 104 58 161t155 57q82 0 127-7z" horiz-adv-x="571.4" />

<glyph glyph-name="gplus" unicode="&#xf0d5;" d="M802 341q0-117-49-207t-138-142-206-51q-83 0-159 32t-131 87-87 131-32 159 32 159 87 131 131 87 159 32q160 0 274-107l-111-107q-65 63-163 63-69 0-127-34t-92-94-34-130 34-130 92-94 127-34q46 0 85 13t64 32 44 43 27 47 12 41h-232v141h386q7-36 7-68z m484 68v-118h-117v-116h-117v116h-117v118h117v116h117v-116h117z" horiz-adv-x="1285.7" />

<glyph glyph-name="youtube-play" unicode="&#xf16a;" d="M397 221l270 139-270 141v-280z m103 481q94 0 181-3t128-5l41-2q0 0 9-1t13-2 13-2 16-5 16-7 17-11 16-15q4-3 9-10t16-33 15-56q4-36 7-76t3-64v-98q1-81-10-162-4-30-14-55t-18-35l-8-9q-7-8-16-15t-17-10-16-7-16-5-13-2-13-2-9-1q-140-11-350-11-115 2-201 4t-111 4l-28 3-20 2q-20 3-30 5t-29 12-31 23q-4 3-9 10t-16 33-15 56q-4 36-7 76t-3 64v98q-1 81 10 162 4 31 14 55t18 35l8 9q8 9 16 15t17 11 16 7 16 5 13 2 13 2 9 1q140 10 350 10z" horiz-adv-x="1000" />

<glyph glyph-name="instagram" unicode="&#xf16d;" d="M571 350q0 59-41 101t-101 42-101-42-42-101 42-101 101-42 101 42 41 101z m77 0q0-91-64-156t-155-64-156 64-64 156 64 156 156 64 155-64 64-156z m61 229q0-21-15-36t-37-15-36 15-15 36 15 36 36 15 37-15 15-36z m-280 123q-4 0-43 0t-59 0-54-2-57-5-40-11q-28-11-49-32t-33-49q-6-16-10-40t-6-58-1-53 0-59 0-43 0-43 0-59 1-53 6-58 10-40q12-28 33-49t49-32q16-6 40-11t57-5 54-2 59 0 43 0 42 0 59 0 54 2 58 5 39 11q28 11 50 32t32 49q6 16 10 40t6 58 1 53 0 59 0 43 0 43 0 59-1 53-6 58-10 40q-11 28-32 49t-50 32q-16 6-39 11t-58 5-54 2-59 0-42 0z m428-352q0-128-3-177-5-116-69-180t-179-69q-50-3-177-3t-177 3q-116 6-180 69t-69 180q-3 49-3 177t3 177q5 116 69 180t180 69q49 3 177 3t177-3q116-6 179-69t69-180q3-49 3-177z" horiz-adv-x="857.1" />

<glyph glyph-name="vkontakte" unicode="&#xf189;" d="M1070 560q13-36-84-164-13-18-36-48-22-28-31-40t-17-27-7-24 8-19 18-24 32-30q2-1 2-2 79-73 107-123 2-3 4-7t4-15-1-19-14-15-33-7l-142-3q-14-2-32 3t-29 13l-11 6q-17 12-39 36t-38 43-34 33-32 8q-1 0-4-2t-10-8-12-16-9-29-4-44q0-8-2-15t-4-10l-2-3q-10-11-30-12h-64q-40-3-81 9t-74 29-57 37-40 32l-14 14q-5 5-15 17t-40 50-59 85-68 117-73 152q-4 9-4 15t2 9l2 3q9 11 32 11l153 1q7-1 13-3t9-5l3-2q9-6 13-18 11-28 26-57t23-46l9-16q16-34 31-58t27-38 23-22 19-8 15 3q1 1 3 3t7 12 7 26 5 46 0 69q-1 23-5 41t-7 26l-4 6q-14 19-47 24-8 2 3 14 8 10 21 17 29 14 133 13 46-1 75-7 12-3 19-8t12-13 5-18 2-25 0-31-2-40 0-46q0-6-1-23t0-27 2-22 6-22 13-14q4-1 9-2t15 6 21 19 29 38 38 60q33 58 60 125 2 6 5 10t6 6l3 2 2 1t8 2 11 0l160 1q22 3 36-1t17-10z" horiz-adv-x="1071.4" />
</font>
</defs>
</svg>
